<?xml version="1.0" encoding="UTF-8" standalone="no"?>
<!DOCTYPE svg PUBLIC "-//W3C//DTD SVG 1.1//EN" "http://www.w3.org/Graphics/SVG/1.1/DTD/svg11.dtd">
<svg xmlns="http://www.w3.org/2000/svg" xmlns:xlink="http://www.w3.org/1999/xlink" version="1.1" width="612pt" height="792pt" viewBox="0 0 612 792">
<g enable-background="new">
<g>
<g id="Layer-1" data-name="Artifact">
<clipPath id="cp0">
<path transform="matrix(1,0,0,-1,0,792)" d="M .00000912 0 L 612 0 L 612 792 L .00000912 792 Z " fill-rule="evenodd"/>
</clipPath>
<g clip-path="url(#cp0)">
<text xml:space="preserve" transform="matrix(1 0 -0 1 0 792)" font-size="10.08" font-family="Times New Roman"><tspan y="-746.86" x="54.024"> </tspan></text>
</g>
<clipPath id="cp1">
<path transform="matrix(1,0,0,-1,0,792)" d="M .00000912 0 L 612 0 L 612 792 L .00000912 792 Z " fill-rule="evenodd"/>
</clipPath>
<g clip-path="url(#cp1)">
</g>
</g>
<g id="Layer-1" data-name="Artifact">
<clipPath id="cp2">
<path transform="matrix(1,0,0,-1,0,792)" d="M .00000912 0 L 612 0 L 612 792 L .00000912 792 Z " fill-rule="evenodd"/>
</clipPath>
<g clip-path="url(#cp2)">
<text xml:space="preserve" transform="matrix(1 0 -0 1 0 792)" font-size="10.08" font-family="Times New Roman"><tspan y="-38.184" x="54.024"> </tspan></text>
</g>
<clipPath id="cp3">
<path transform="matrix(1,0,0,-1,0,792)" d="M .00000912 0 L 612 0 L 612 792 L .00000912 792 Z " fill-rule="evenodd"/>
</clipPath>
<g clip-path="url(#cp3)">
</g>
</g>
<g id="Layer-1" data-name="P">
<clipPath id="cp4">
<path transform="matrix(1,0,0,-1,0,792)" d="M .00000912 0 L 612 0 L 612 792 L .00000912 792 Z " fill-rule="evenodd"/>
</clipPath>
<g clip-path="url(#cp4)">
<text xml:space="preserve" transform="matrix(1 0 -0 1 0 792)" font-size="16.08" font-family="Calibri,Bold" font-weight="bold"><tspan y="-713.26" x="54.024"> </tspan></text>
</g>
<clipPath id="cp5">
<path transform="matrix(1,0,0,-1,0,792)" d="M .00000912 0 L 612 0 L 612 792 L .00000912 792 Z " fill-rule="evenodd"/>
</clipPath>
<g clip-path="url(#cp5)">
<text xml:space="preserve" transform="matrix(1 0 -0 1 0 792)" font-size="16.08" font-family="Calibri,Bold" font-weight="bold"><tspan y="-713.26" x="85.944"> </tspan></text>
</g>
<clipPath id="cp6">
<path transform="matrix(1,0,0,-1,0,792)" d="M .00000912 0 L 612 0 L 612 792 L .00000912 792 Z " fill-rule="evenodd"/>
</clipPath>
<g clip-path="url(#cp6)">
<text xml:space="preserve" transform="matrix(1 0 -0 1 0 792)" font-size="25.92" font-family="Calibri Light"><tspan y="-713.26" x="246.34 262.6696 275.86286 289.34126 302.5086 308.26286 329.85423 341.85517 350.79759 359.14384 364.6648 377.85807">Nuno Martins</tspan></text>
<text xml:space="preserve" transform="matrix(1 0 -0 1 0 792)" font-size="25.92" font-family="Calibri Light"><tspan y="-713.26" x="246.34 262.6696 275.86286 289.34126 302.5086 308.26286 329.85423 341.85517 350.79759 359.14384 364.6648 377.85807">Nuno Martins</tspan></text>
</g>
<clipPath id="cp7">
<path transform="matrix(1,0,0,-1,0,792)" d="M .00000912 0 L 612 0 L 612 792 L .00000912 792 Z " fill-rule="evenodd"/>
</clipPath>
<g clip-path="url(#cp7)">
<text xml:space="preserve" transform="matrix(1 0 -0 1 0 792)" font-size="18" font-family="Calibri Light"><tspan y="-713.26" x="387.74"> </tspan></text>
<text xml:space="preserve" transform="matrix(1 0 -0 1 0 792)" font-size="18" font-family="Calibri Light"><tspan y="-713.26" x="387.74"> </tspan></text>
</g>
<clipPath id="cp8">
<path transform="matrix(1,0,0,-1,0,792)" d="M .00000912 0 L 612 0 L 612 792 L .00000912 792 Z " fill-rule="evenodd"/>
</clipPath>
<g clip-path="url(#cp8)">
</g>
</g>
<g id="Layer-1" data-name="P">
<clipPath id="cp9">
<path transform="matrix(1,0,0,-1,0,792)" d="M .00000912 0 L 612 0 L 612 792 L .00000912 792 Z " fill-rule="evenodd"/>
</clipPath>
<g clip-path="url(#cp9)">
<text xml:space="preserve" transform="matrix(1 0 -0 1 0 792)" font-size="12" font-family="Calibri"><tspan y="-689.98" x="178.87 187.498 196.126 204.75402 207.86202 214.10202 220.34203 226.58203 232.82204 239.06204 245.03804 250.57004 253.67804 258.71803 264.958 274.54603 277.19804 282.71803 285.35804 291.59803 297.838 304.306 310.546 313.654 323.242 328.99 333.09397 337.16197 339.80198 346.04197 350.82997 353.93797 360.17796 366.15397 371.68598 382.47398 388.222 397.81 403.55799 406.222 408.862 411.97 417.00999 423.24998">www.nunodev.com | nuno.martins.dev@gmail.com</tspan></text>
</g>
<clipPath id="cp10">
<path transform="matrix(1,0,0,-1,0,792)" d="M .00000912 0 L 612 0 L 612 792 L .00000912 792 Z " fill-rule="evenodd"/>
</clipPath>
<g clip-path="url(#cp10)">
<text xml:space="preserve" transform="matrix(1 0 -0 1 0 792)" font-size="12" font-family="Calibri"><tspan y="-689.98" x="433.13"> </tspan></text>
</g>
</g>
<g id="Layer-1" data-name="P">
<clipPath id="cp11">
<path transform="matrix(1,0,0,-1,0,792)" d="M .00000912 0 L 612 0 L 612 792 L .00000912 792 Z " fill-rule="evenodd"/>
</clipPath>
<g clip-path="url(#cp11)">
<text xml:space="preserve" transform="matrix(1 0 -0 1 0 792)" font-size="12" font-family="Calibri"><tspan y="-673.18" x="183.43 186.06999 188.70999 194.95 200.45801 206.434 212.92601 215.56601 221.80602 224.91402 229.95403 236.19403 245.78203 250.58203 253.22203 259.46205 264.02204 270.49003 276.73 282.97">linkedin.com/in/nuno</tspan></text>
</g>
<clipPath id="cp12">
<path transform="matrix(1,0,0,-1,0,792)" d="M .00000912 0 L 612 0 L 612 792 L .00000912 792 Z " fill-rule="evenodd"/>
</clipPath>
<g clip-path="url(#cp12)">
<text xml:space="preserve" transform="matrix(1 0 -0 1 0 792)" font-size="12" font-family="Calibri"><tspan y="-673.18" x="289.56">-</tspan></text>
</g>
<clipPath id="cp13">
<path transform="matrix(1,0,0,-1,0,792)" d="M .00000912 0 L 612 0 L 612 792 L .00000912 792 Z " fill-rule="evenodd"/>
</clipPath>
<g clip-path="url(#cp13)">
<text xml:space="preserve" transform="matrix(1 0 -0 1 0 792)" font-size="12" font-family="Calibri"><tspan y="-673.18" x="293.16 299.4 305.376 310.90803">dev </tspan></text>
</g>
<clipPath id="cp14">
<path transform="matrix(1,0,0,-1,0,792)" d="M .00000912 0 L 612 0 L 612 792 L .00000912 792 Z " fill-rule="evenodd"/>
</clipPath>
<g clip-path="url(#cp14)">
<text xml:space="preserve" transform="matrix(1 0 -0 1 0 792)" font-size="12" font-family="Calibri"><tspan y="-673.18" x="313.56 319.08">| </tspan></text>
</g>
<clipPath id="cp15">
<path transform="matrix(1,0,0,-1,0,792)" d="M .00000912 0 L 612 0 L 612 792 L .00000912 792 Z " fill-rule="evenodd"/>
</clipPath>
<g clip-path="url(#cp15)">
<text xml:space="preserve" transform="matrix(1 0 -0 1 0 792)" font-size="12" font-family="Calibri"><tspan y="-673.18" x="321.72 327.46803 330.10804 334.17604 340.41603 346.884 353.124 356.232 361.27198 367.51197 377.09999 381.67198 387.91197 394.37995 400.61994">github.com/nuno</tspan></text>
</g>
<clipPath id="cp16">
<path transform="matrix(1,0,0,-1,0,792)" d="M .00000912 0 L 612 0 L 612 792 L .00000912 792 Z " fill-rule="evenodd"/>
</clipPath>
<g clip-path="url(#cp16)">
<text xml:space="preserve" transform="matrix(1 0 -0 1 0 792)" font-size="12" font-family="Calibri"><tspan y="-673.18" x="406.94">-</tspan></text>
</g>
<clipPath id="cp17">
<path transform="matrix(1,0,0,-1,0,792)" d="M .00000912 0 L 612 0 L 612 792 L .00000912 792 Z " fill-rule="evenodd"/>
</clipPath>
<g clip-path="url(#cp17)">
<text xml:space="preserve" transform="matrix(1 0 -0 1 0 792)" font-size="12" font-family="Calibri"><tspan y="-673.18" x="410.78 417.02 422.996">dev</tspan></text>
</g>
<clipPath id="cp18">
<path transform="matrix(1,0,0,-1,0,792)" d="M .00000912 0 L 612 0 L 612 792 L .00000912 792 Z " fill-rule="evenodd"/>
</clipPath>
<g clip-path="url(#cp18)">
<text xml:space="preserve" transform="matrix(1 0 -0 1 0 792)" font-size="12" font-family="Calibri"><tspan y="-673.18" x="428.57"> </tspan></text>
</g>
</g>
<g id="Layer-1" data-name="P">
<clipPath id="cp19">
<path transform="matrix(1,0,0,-1,0,792)" d="M .00000912 0 L 612 0 L 612 792 L .00000912 792 Z " fill-rule="evenodd"/>
</clipPath>
<g clip-path="url(#cp19)">
<text xml:space="preserve" transform="matrix(1 0 -0 1 0 792)" font-size="12" font-family="Calibri"><tspan y="-658.51" x="306.12"> </tspan></text>
</g>
</g>
<g id="Layer-1" data-name="P">
<clipPath id="cp20">
<path transform="matrix(1,0,0,-1,0,792)" d="M .00000912 0 L 612 0 L 612 792 L .00000912 792 Z " fill-rule="evenodd"/>
</clipPath>
<g clip-path="url(#cp20)">
<text xml:space="preserve" transform="matrix(1 0 -0 1 0 792)" font-size="11.04" font-family="Calibri,Bold" font-weight="bold"><tspan y="-644.83" x="54.024"> </tspan></text>
</g>
</g>
<g id="Layer-1" data-name="P">
<clipPath id="cp21">
<path transform="matrix(1,0,0,-1,0,792)" d="M .00000912 0 L 612 0 L 612 792 L .00000912 792 Z " fill-rule="evenodd"/>
</clipPath>
<g clip-path="url(#cp21)">
<text xml:space="preserve" transform="matrix(1 0 -0 1 0 792)" font-size="13.92" font-family="Calibri,Bold" font-weight="bold"><tspan y="-628.75" x="54.024 66.73296 76.087207 83.99377 91.66369 94.80961 101.50513 109.17505 116.60833 123.33169 131.4749 135.08019 142.02626 151.14386 158.56322">WORK EXPERIENCE</tspan></text>
</g>
<clipPath id="cp22">
<path transform="matrix(1,0,0,-1,0,792)" d="M .00000912 0 L 612 0 L 612 792 L .00000912 792 Z " fill-rule="evenodd"/>
</clipPath>
<g clip-path="url(#cp22)">
<text xml:space="preserve" transform="matrix(1 0 -0 1 0 792)" font-size="12.96" font-family="Calibri,Bold" font-weight="bold"><tspan y="-628.75" x="165.67"> </tspan></text>
</g>
<clipPath id="cp23">
<path transform="matrix(1,0,0,-1,0,792)" d="M .00000912 0 L 612 0 L 612 792 L .00000912 792 Z " fill-rule="evenodd"/>
</clipPath>
<g clip-path="url(#cp23)">
<text xml:space="preserve" transform="matrix(1 0 -0 1 0 792)" font-size="12.96" font-family="Calibri,Bold" font-weight="bold"><tspan y="-628.75" x="306.12"> </tspan></text>
</g>
<clipPath id="cp24">
<path transform="matrix(1,0,0,-1,0,792)" d="M .00000912 0 L 612 0 L 612 792 L .00000912 792 Z " fill-rule="evenodd"/>
</clipPath>
<g clip-path="url(#cp24)">
<text xml:space="preserve" transform="matrix(1 0 -0 1 0 792)" font-size="12.96" font-family="Calibri,Bold" font-weight="bold"><tspan y="-628.75" x="342.12"> </tspan></text>
</g>
<clipPath id="cp25">
<path transform="matrix(1,0,0,-1,0,792)" d="M .00000912 0 L 612 0 L 612 792 L .00000912 792 Z " fill-rule="evenodd"/>
</clipPath>
<g clip-path="url(#cp25)">
<text xml:space="preserve" transform="matrix(1 0 -0 1 0 792)" font-size="12.96" font-family="Calibri,Bold" font-weight="bold"><tspan y="-628.75" x="378.14"> </tspan></text>
</g>
<clipPath id="cp26">
<path transform="matrix(1,0,0,-1,0,792)" d="M .00000912 0 L 612 0 L 612 792 L .00000912 792 Z " fill-rule="evenodd"/>
</clipPath>
<g clip-path="url(#cp26)">
<text xml:space="preserve" transform="matrix(1 0 -0 1 0 792)" font-size="12.96" font-family="Calibri,Bold" font-weight="bold"><tspan y="-628.75" x="414.14"> </tspan></text>
</g>
<clipPath id="cp27">
<path transform="matrix(1,0,0,-1,0,792)" d="M .00000912 0 L 612 0 L 612 792 L .00000912 792 Z " fill-rule="evenodd"/>
</clipPath>
<g clip-path="url(#cp27)">
<text xml:space="preserve" transform="matrix(1 0 -0 1 0 792)" font-size="12.96" font-family="Calibri,Bold" font-weight="bold"><tspan y="-628.75" x="450.17"> </tspan></text>
</g>
<clipPath id="cp28">
<path transform="matrix(1,0,0,-1,0,792)" d="M .00000912 0 L 612 0 L 612 792 L .00000912 792 Z " fill-rule="evenodd"/>
</clipPath>
<g clip-path="url(#cp28)">
<text xml:space="preserve" transform="matrix(1 0 -0 1 0 792)" font-size="12.96" font-family="Calibri,Bold" font-weight="bold"><tspan y="-628.75" x="486.19 489.0671 491.9442 494.82133 497.69844 500.57554 503.6859 506.56303 509.44013 512.31729 515.4277 518.3048 521.18197 524.0591 527.1695 530.04666 532.92379 535.8009 538.9113 541.78848 544.6656 547.5427 550.65316 553.5303 556.4074 559.28457">                          </tspan></text>
</g>
<clipPath id="cp29">
<path transform="matrix(1,0,0,-1,0,792)" d="M .00000912 0 L 612 0 L 612 792 L .00000912 792 Z " fill-rule="evenodd"/>
</clipPath>
<g clip-path="url(#cp29)">
<text xml:space="preserve" transform="matrix(1 0 -0 1 0 792)" font-size="12.96" font-family="Calibri,Bold" font-weight="bold"><tspan y="-628.75" x="562.54"> </tspan></text>
</g>
<clipPath id="cp30">
<path transform="matrix(1,0,0,-1,0,792)" d="M .00000912 0 L 612 0 L 612 792 L .00000912 792 Z " fill-rule="evenodd"/>
</clipPath>
<g clip-path="url(#cp30)">
<path transform="matrix(1,0,0,-1,0,792)" d="M 52.584 618.91 L 559.654 618.91 L 559.654 621.06997 L 52.584 621.06997 Z " fill="#6c6c6c" fill-rule="evenodd"/>
</g>
</g>
<g id="Layer-1" data-name="P">
<clipPath id="cp31">
<path transform="matrix(1,0,0,-1,0,792)" d="M .00000912 0 L 612 0 L 612 792 L .00000912 792 Z " fill-rule="evenodd"/>
</clipPath>
<g clip-path="url(#cp31)">
<text xml:space="preserve" transform="matrix(1 0 -0 1 0 792)" font-size="7.92" font-family="Calibri,Bold" font-weight="bold"><tspan y="-611.47" x="54.024"> </tspan></text>
</g>
<clipPath id="cp32">
<path transform="matrix(1,0,0,-1,0,792)" d="M .00000912 0 L 612 0 L 612 792 L .00000912 792 Z " fill-rule="evenodd"/>
</clipPath>
<g clip-path="url(#cp32)">
</g>
</g>
<g id="Layer-1" data-name="P">
<clipPath id="cp33">
<path transform="matrix(1,0,0,-1,0,792)" d="M .00000912 0 L 612 0 L 612 792 L .00000912 792 Z " fill-rule="evenodd"/>
</clipPath>
<g clip-path="url(#cp33)">
<text xml:space="preserve" transform="matrix(1 0 -0 1 0 792)" font-size="12" font-family="Calibri,Bold" font-weight="bold"><tspan y="-597.79" x="54.024 59.771997 66.228 70.079998 74.159999 83.04 89.028 93.336 99.336 101.976 107.736 114.204 119.952 122.83201 129.3 135.3 141.3 145.608 148.248 151.368 157.836 161.916 167.916 172.224">Software Engineer Intern</tspan></text>
</g>
<clipPath id="cp34">
<path transform="matrix(1,0,0,-1,0,792)" d="M .00000912 0 L 612 0 L 612 792 L .00000912 792 Z " fill-rule="evenodd"/>
</clipPath>
<g clip-path="url(#cp34)">
<text xml:space="preserve" transform="matrix(1 0 -0 1 0 792)" font-size="11.04" font-family="Calibri,Bold" font-weight="bold"><tspan y="-597.79" x="178.87"> </tspan></text>
</g>
<clipPath id="cp35">
<path transform="matrix(1,0,0,-1,0,792)" d="M .00000912 0 L 612 0 L 612 792 L .00000912 792 Z " fill-rule="evenodd"/>
</clipPath>
<g clip-path="url(#cp35)">
<text xml:space="preserve" transform="matrix(1 0 -0 1 0 792)" font-size="11.04" font-family="Calibri"><tspan y="-597.79" x="469.13 478.49195 483.7801 488.78123 491.21 496.73 502.25004 507.77006">May 2022</tspan></text>
</g>
<clipPath id="cp36">
<path transform="matrix(1,0,0,-1,0,792)" d="M .00000912 0 L 612 0 L 612 792 L .00000912 792 Z " fill-rule="evenodd"/>
</clipPath>
<g clip-path="url(#cp36)">
<text xml:space="preserve" transform="matrix(1 0 -0 1 0 792)" font-size="11.04" font-family="Calibri"><tspan y="-597.79" x="513.31"> </tspan></text>
</g>
<clipPath id="cp37">
<path transform="matrix(1,0,0,-1,0,792)" d="M .00000912 0 L 612 0 L 612 792 L .00000912 792 Z " fill-rule="evenodd"/>
</clipPath>
<g clip-path="url(#cp37)">
<text xml:space="preserve" transform="matrix(1 0 -0 1 0 792)" font-size="11.04" font-family="Calibri"><tspan y="-597.79" x="515.71">&#x2013;</tspan></text>
</g>
<clipPath id="cp38">
<path transform="matrix(1,0,0,-1,0,792)" d="M .00000912 0 L 612 0 L 612 792 L .00000912 792 Z " fill-rule="evenodd"/>
</clipPath>
<g clip-path="url(#cp38)">
<text xml:space="preserve" transform="matrix(1 0 -0 1 0 792)" font-size="11.04" font-family="Calibri"><tspan y="-597.79" x="521.47"> </tspan></text>
</g>
<clipPath id="cp39">
<path transform="matrix(1,0,0,-1,0,792)" d="M .00000912 0 L 612 0 L 612 792 L .00000912 792 Z " fill-rule="evenodd"/>
</clipPath>
<g clip-path="url(#cp39)">
<text xml:space="preserve" transform="matrix(1 0 -0 1 0 792)" font-size="11.04" font-family="Calibri"><tspan y="-597.79" x="523.87 529.6219 533.47488 538.9728 543.2894 548.80947 554.5723">Present</tspan></text>
</g>
<clipPath id="cp40">
<path transform="matrix(1,0,0,-1,0,792)" d="M .00000912 0 L 612 0 L 612 792 L .00000912 792 Z " fill-rule="evenodd"/>
</clipPath>
<g clip-path="url(#cp40)">
<text xml:space="preserve" transform="matrix(1 0 -0 1 0 792)" font-size="11.04" font-family="Calibri"><tspan y="-597.79" x="558.22"> </tspan></text>
</g>
<clipPath id="cp41">
<path transform="matrix(1,0,0,-1,0,792)" d="M .00000912 0 L 612 0 L 612 792 L .00000912 792 Z " fill-rule="evenodd"/>
</clipPath>
<g clip-path="url(#cp41)">
</g>
</g>
<g id="Layer-1" data-name="P">
<clipPath id="cp42">
<path transform="matrix(1,0,0,-1,0,792)" d="M .00000912 0 L 612 0 L 612 792 L .00000912 792 Z " fill-rule="evenodd"/>
</clipPath>
<g clip-path="url(#cp42)">
<text xml:space="preserve" transform="matrix(1 0 -0 1 0 792)" font-size="12" font-family="Calibri"><tspan y="-583.13" x="54.024 61.727998 67.944 70.584 74.65199">Unit4</tspan></text>
</g>
<clipPath id="cp43">
<path transform="matrix(1,0,0,-1,0,792)" d="M .00000912 0 L 612 0 L 612 792 L .00000912 792 Z " fill-rule="evenodd"/>
</clipPath>
<g clip-path="url(#cp43)">
<text xml:space="preserve" transform="matrix(1 0 -0 1 0 792)" font-size="11.04" font-family="Calibri"><tspan y="-583.13" x="80.904"> </tspan></text>
</g>
<clipPath id="cp44">
<path transform="matrix(1,0,0,-1,0,792)" d="M .00000912 0 L 612 0 L 612 792 L .00000912 792 Z " fill-rule="evenodd"/>
</clipPath>
<g clip-path="url(#cp44)">
<text xml:space="preserve" transform="matrix(1 0 -0 1 0 792)" font-size="11.04" font-family="Calibri"><tspan y="-583.13" x="486.43 490.98954 493.61708 497.93373 503.7297 509.45948 515.22238 517.8609 520.2566 526.0085 531.77139 535.6243 539.21237 544.9752 550.2413 555.5294">Lisbon, Portugal</tspan></text>
</g>
<clipPath id="cp45">
<path transform="matrix(1,0,0,-1,0,792)" d="M .00000912 0 L 612 0 L 612 792 L .00000912 792 Z " fill-rule="evenodd"/>
</clipPath>
<g clip-path="url(#cp45)">
<text xml:space="preserve" transform="matrix(1 0 -0 1 0 792)" font-size="11.04" font-family="Calibri"><tspan y="-583.13" x="558.22"> </tspan></text>
</g>
<clipPath id="cp46">
<path transform="matrix(1,0,0,-1,0,792)" d="M .00000912 0 L 612 0 L 612 792 L .00000912 792 Z " fill-rule="evenodd"/>
</clipPath>
<g clip-path="url(#cp46)">
</g>
</g>
<g id="Layer-1" data-name="P">
<clipPath id="cp47">
<path transform="matrix(1,0,0,-1,0,792)" d="M .00000912 0 L 612 0 L 612 792 L .00000912 792 Z " fill-rule="evenodd"/>
</clipPath>
<g clip-path="url(#cp47)">
<text xml:space="preserve" transform="matrix(1 0 -0 1 0 792)" font-size="11.04" font-family="Calibri"><tspan y="-562.01" x="54.024">&#x25aa;</tspan></text>
</g>
<clipPath id="cp48">
<path transform="matrix(1,0,0,-1,0,792)" d="M .00000912 0 L 612 0 L 612 792 L .00000912 792 Z " fill-rule="evenodd"/>
</clipPath>
<g clip-path="url(#cp48)">
<text xml:space="preserve" transform="matrix(1 0 -0 1 0 792)" font-size="11.04" font-family="Arial"><tspan y="-562.01" x="57.864"> </tspan></text>
</g>
<clipPath id="cp49">
<path transform="matrix(1,0,0,-1,0,792)" d="M .00000912 0 L 612 0 L 612 792 L .00000912 792 Z " fill-rule="evenodd"/>
</clipPath>
<g clip-path="url(#cp49)">
<text xml:space="preserve" transform="matrix(1 0 -0 1 0 792)" font-size="11.04" font-family="Calibri"><tspan y="-562.01" x="67.464 77.2896 83.063518 86.91647">Work</tspan></text>
</g>
<clipPath id="cp50">
<path transform="matrix(1,0,0,-1,0,792)" d="M .00000912 0 L 612 0 L 612 792 L .00000912 792 Z " fill-rule="evenodd"/>
</clipPath>
<g clip-path="url(#cp50)">
<text xml:space="preserve" transform="matrix(1 0 -0 1 0 792)" font-size="11.04" font-family="Calibri"><tspan y="-562.01" x="91.944 94.57152 100.3344">ing</tspan></text>
</g>
<clipPath id="cp51">
<path transform="matrix(1,0,0,-1,0,792)" d="M .00000912 0 L 612 0 L 612 792 L .00000912 792 Z " fill-rule="evenodd"/>
</clipPath>
<g clip-path="url(#cp51)">
<text xml:space="preserve" transform="matrix(1 0 -0 1 0 792)" font-size="11.04" font-family="Calibri"><tspan y="-562.01" x="105.65"> </tspan></text>
</g>
<clipPath id="cp52">
<path transform="matrix(1,0,0,-1,0,792)" d="M .00000912 0 L 612 0 L 612 792 L .00000912 792 Z " fill-rule="evenodd"/>
</clipPath>
<g clip-path="url(#cp52)">
<text xml:space="preserve" transform="matrix(1 0 -0 1 0 792)" font-size="11.04" font-family="Calibri"><tspan y="-562.01" x="108.05 111.417209 117.169048 119.56473 122.192249 127.95513 135.84873 138.50937 144.27225 149.53833 151.70217 158.17162 163.4377 165.83338 168.46089 173.95882 176.37657 185.24169 190.73961 194.36072 200.1236 205.88648 211.64936 217.41223 220.03975 225.80263 230.84792 233.47544 238.97336">following Agile methodologies</tspan></text>
</g>
<clipPath id="cp53">
<path transform="matrix(1,0,0,-1,0,792)" d="M .00000912 0 L 612 0 L 612 792 L .00000912 792 Z " fill-rule="evenodd"/>
</clipPath>
<g clip-path="url(#cp53)">
<text xml:space="preserve" transform="matrix(1 0 -0 1 0 792)" font-size="11.04" font-family="Calibri"><tspan y="-562.01" x="243.46"> </tspan></text>
</g>
<clipPath id="cp54">
<path transform="matrix(1,0,0,-1,0,792)" d="M .00000912 0 L 612 0 L 612 792 L .00000912 792 Z " fill-rule="evenodd"/>
</clipPath>
<g clip-path="url(#cp54)">
<text xml:space="preserve" transform="matrix(1 0 -0 1 0 792)" font-size="11.04" font-family="Calibri"><tspan y="-562.01" x="245.86 251.14817 256.9 262.66288 265.05854">and t</tspan></text>
</g>
<clipPath id="cp55">
<path transform="matrix(1,0,0,-1,0,792)" d="M .00000912 0 L 612 0 L 612 792 L .00000912 792 Z " fill-rule="evenodd"/>
</clipPath>
<g clip-path="url(#cp55)">
<text xml:space="preserve" transform="matrix(1 0 -0 1 0 792)" font-size="11.04" font-family="Calibri"><tspan y="-562.01" x="268.66 274.15794 278.73954 284.5024 290.2653 296.02818 298.6557 304.41859 309.68467 312.08036 317.57829">echnologies</tspan></text>
</g>
<clipPath id="cp56">
<path transform="matrix(1,0,0,-1,0,792)" d="M .00000912 0 L 612 0 L 612 792 L .00000912 792 Z " fill-rule="evenodd"/>
</clipPath>
<g clip-path="url(#cp56)">
<text xml:space="preserve" transform="matrix(1 0 -0 1 0 792)" font-size="11.04" font-family="Calibri"><tspan y="-562.01" x="321.96"> </tspan></text>
</g>
<clipPath id="cp57">
<path transform="matrix(1,0,0,-1,0,792)" d="M .00000912 0 L 612 0 L 612 792 L .00000912 792 Z " fill-rule="evenodd"/>
</clipPath>
<g clip-path="url(#cp57)">
<text xml:space="preserve" transform="matrix(1 0 -0 1 0 792)" font-size="11.04" font-family="Calibri"><tspan y="-562.01" x="324.36 328.67665 334.47264 338.99903 344.7619 347.15757 352.4457">such as</tspan></text>
</g>
<clipPath id="cp58">
<path transform="matrix(1,0,0,-1,0,792)" d="M .00000912 0 L 612 0 L 612 792 L .00000912 792 Z " fill-rule="evenodd"/>
</clipPath>
<g clip-path="url(#cp58)">
<text xml:space="preserve" transform="matrix(1 0 -0 1 0 792)" font-size="11.04" font-family="Calibri"><tspan y="-562.01" x="356.78"> </tspan></text>
</g>
<clipPath id="cp59">
<path transform="matrix(1,0,0,-1,0,792)" d="M .00000912 0 L 612 0 L 612 792 L .00000912 792 Z " fill-rule="evenodd"/>
</clipPath>
<g clip-path="url(#cp59)">
<text xml:space="preserve" transform="matrix(1 0 -0 1 0 792)" font-size="11.04" font-family="Calibri"><tspan y="-562.01" x="359.18 362.768 368.05616 373.07936 378.3675 380.99504 383.3907 389.37437 394.87229 397.53294 399.9286 402.79899 409.98603 415.26313 420.54023">Java, C#, .NET.</tspan></text>
</g>
<clipPath id="cp60">
<path transform="matrix(1,0,0,-1,0,792)" d="M .00000912 0 L 612 0 L 612 792 L .00000912 792 Z " fill-rule="evenodd"/>
</clipPath>
<g clip-path="url(#cp60)">
<text xml:space="preserve" transform="matrix(1 0 -0 1 0 792)" font-size="11.04" font-family="Calibri"><tspan y="-562.01" x="423.77"> </tspan></text>
</g>
<clipPath id="cp61">
<path transform="matrix(1,0,0,-1,0,792)" d="M .00000912 0 L 612 0 L 612 792 L .00000912 792 Z " fill-rule="evenodd"/>
</clipPath>
<g clip-path="url(#cp61)">
</g>
</g>
<g id="Layer-1" data-name="P">
<clipPath id="cp62">
<path transform="matrix(1,0,0,-1,0,792)" d="M .00000912 0 L 612 0 L 612 792 L .00000912 792 Z " fill-rule="evenodd"/>
</clipPath>
<g clip-path="url(#cp62)">
<text xml:space="preserve" transform="matrix(1 0 -0 1 0 792)" font-size="11.04" font-family="Calibri,Bold" font-weight="bold"><tspan y="-546.65" x="54.024"> </tspan></text>
</g>
</g>
<g id="Layer-1" data-name="P">
<clipPath id="cp63">
<path transform="matrix(1,0,0,-1,0,792)" d="M .00000912 0 L 612 0 L 612 792 L .00000912 792 Z " fill-rule="evenodd"/>
</clipPath>
<g clip-path="url(#cp63)">
<text xml:space="preserve" transform="matrix(1 0 -0 1 0 792)" font-size="12" font-family="Calibri,Bold" font-weight="bold"><tspan y="-532.25" x="54.024 59.771997 66.228 70.079998 74.159999 83.04 89.028 93.336 99.336 101.976 107.736 114.204 119.952 122.83201 129.3 135.3 141.3 145.608 148.248 151.368 157.836 161.916 167.916 172.224">Software Engineer Intern</tspan></text>
</g>
<clipPath id="cp64">
<path transform="matrix(1,0,0,-1,0,792)" d="M .00000912 0 L 612 0 L 612 792 L .00000912 792 Z " fill-rule="evenodd"/>
</clipPath>
<g clip-path="url(#cp64)">
<text xml:space="preserve" transform="matrix(1 0 -0 1 0 792)" font-size="11.04" font-family="Calibri,Bold" font-weight="bold"><tspan y="-532.25" x="178.87"> </tspan></text>
</g>
<clipPath id="cp65">
<path transform="matrix(1,0,0,-1,0,792)" d="M .00000912 0 L 612 0 L 612 792 L .00000912 792 Z " fill-rule="evenodd"/>
</clipPath>
<g clip-path="url(#cp65)">
<text xml:space="preserve" transform="matrix(1 0 -0 1 0 792)" font-size="11.04" font-family="Calibri"><tspan y="-532.25" x="461.45">J</tspan></text>
</g>
<clipPath id="cp66">
<path transform="matrix(1,0,0,-1,0,792)" d="M .00000912 0 L 612 0 L 612 792 L .00000912 792 Z " fill-rule="evenodd"/>
</clipPath>
<g clip-path="url(#cp66)">
<text xml:space="preserve" transform="matrix(1 0 -0 1 0 792)" font-size="11.04" font-family="Calibri"><tspan y="-532.25" x="465.05 470.81 476.57">une</tspan></text>
</g>
<clipPath id="cp67">
<path transform="matrix(1,0,0,-1,0,792)" d="M .00000912 0 L 612 0 L 612 792 L .00000912 792 Z " fill-rule="evenodd"/>
</clipPath>
<g clip-path="url(#cp67)">
<text xml:space="preserve" transform="matrix(1 0 -0 1 0 792)" font-size="11.04" font-family="Calibri"><tspan y="-532.25" x="482.09"> </tspan></text>
</g>
<clipPath id="cp68">
<path transform="matrix(1,0,0,-1,0,792)" d="M .00000912 0 L 612 0 L 612 792 L .00000912 792 Z " fill-rule="evenodd"/>
</clipPath>
<g clip-path="url(#cp68)">
<text xml:space="preserve" transform="matrix(1 0 -0 1 0 792)" font-size="11.04" font-family="Calibri"><tspan y="-532.25" x="484.51 490.03">20</tspan></text>
</g>
<clipPath id="cp69">
<path transform="matrix(1,0,0,-1,0,792)" d="M .00000912 0 L 612 0 L 612 792 L .00000912 792 Z " fill-rule="evenodd"/>
</clipPath>
<g clip-path="url(#cp69)">
<text xml:space="preserve" transform="matrix(1 0 -0 1 0 792)" font-size="11.04" font-family="Calibri"><tspan y="-532.25" x="495.55 501.06999">21</tspan></text>
</g>
<clipPath id="cp70">
<path transform="matrix(1,0,0,-1,0,792)" d="M .00000912 0 L 612 0 L 612 792 L .00000912 792 Z " fill-rule="evenodd"/>
</clipPath>
<g clip-path="url(#cp70)">
<text xml:space="preserve" transform="matrix(1 0 -0 1 0 792)" font-size="11.04" font-family="Calibri"><tspan y="-532.25" x="506.59"> </tspan></text>
</g>
<clipPath id="cp71">
<path transform="matrix(1,0,0,-1,0,792)" d="M .00000912 0 L 612 0 L 612 792 L .00000912 792 Z " fill-rule="evenodd"/>
</clipPath>
<g clip-path="url(#cp71)">
<text xml:space="preserve" transform="matrix(1 0 -0 1 0 792)" font-size="11.04" font-family="Calibri"><tspan y="-532.25" x="508.99">&#x2013;</tspan></text>
</g>
<clipPath id="cp72">
<path transform="matrix(1,0,0,-1,0,792)" d="M .00000912 0 L 612 0 L 612 792 L .00000912 792 Z " fill-rule="evenodd"/>
</clipPath>
<g clip-path="url(#cp72)">
<text xml:space="preserve" transform="matrix(1 0 -0 1 0 792)" font-size="11.04" font-family="Calibri"><tspan y="-532.25" x="514.51"> </tspan></text>
</g>
<clipPath id="cp73">
<path transform="matrix(1,0,0,-1,0,792)" d="M .00000912 0 L 612 0 L 612 792 L .00000912 792 Z " fill-rule="evenodd"/>
</clipPath>
<g clip-path="url(#cp73)">
<text xml:space="preserve" transform="matrix(1 0 -0 1 0 792)" font-size="11.04" font-family="Calibri"><tspan y="-532.25" x="516.91 521.97738 527.4753">Sep</tspan></text>
</g>
<clipPath id="cp74">
<path transform="matrix(1,0,0,-1,0,792)" d="M .00000912 0 L 612 0 L 612 792 L .00000912 792 Z " fill-rule="evenodd"/>
</clipPath>
<g clip-path="url(#cp74)">
<text xml:space="preserve" transform="matrix(1 0 -0 1 0 792)" font-size="11.04" font-family="Calibri"><tspan y="-532.25" x="533.47"> </tspan></text>
</g>
<clipPath id="cp75">
<path transform="matrix(1,0,0,-1,0,792)" d="M .00000912 0 L 612 0 L 612 792 L .00000912 792 Z " fill-rule="evenodd"/>
</clipPath>
<g clip-path="url(#cp75)">
<text xml:space="preserve" transform="matrix(1 0 -0 1 0 792)" font-size="11.04" font-family="Calibri"><tspan y="-532.25" x="535.87 541.38998">20</tspan></text>
</g>
<clipPath id="cp76">
<path transform="matrix(1,0,0,-1,0,792)" d="M .00000912 0 L 612 0 L 612 792 L .00000912 792 Z " fill-rule="evenodd"/>
</clipPath>
<g clip-path="url(#cp76)">
<text xml:space="preserve" transform="matrix(1 0 -0 1 0 792)" font-size="11.04" font-family="Calibri"><tspan y="-532.25" x="546.91 552.6702">21</tspan></text>
</g>
<clipPath id="cp77">
<path transform="matrix(1,0,0,-1,0,792)" d="M .00000912 0 L 612 0 L 612 792 L .00000912 792 Z " fill-rule="evenodd"/>
</clipPath>
<g clip-path="url(#cp77)">
<text xml:space="preserve" transform="matrix(1 0 -0 1 0 792)" font-size="11.04" font-family="Calibri"><tspan y="-532.25" x="558.22"> </tspan></text>
</g>
<clipPath id="cp78">
<path transform="matrix(1,0,0,-1,0,792)" d="M .00000912 0 L 612 0 L 612 792 L .00000912 792 Z " fill-rule="evenodd"/>
</clipPath>
<g clip-path="url(#cp78)">
<text xml:space="preserve" transform="matrix(1 0 -0 1 0 792)" font-size="11.04" font-family="Calibri"><tspan y="-532.25" x="560.86"> </tspan></text>
</g>
<clipPath id="cp79">
<path transform="matrix(1,0,0,-1,0,792)" d="M .00000912 0 L 612 0 L 612 792 L .00000912 792 Z " fill-rule="evenodd"/>
</clipPath>
<g clip-path="url(#cp79)">
</g>
</g>
<g id="Layer-1" data-name="P">
<clipPath id="cp80">
<path transform="matrix(1,0,0,-1,0,792)" d="M .00000912 0 L 612 0 L 612 792 L .00000912 792 Z " fill-rule="evenodd"/>
</clipPath>
<g clip-path="url(#cp80)">
<text xml:space="preserve" transform="matrix(1 0 -0 1 0 792)" font-size="12" font-family="Calibri"><tspan y="-517.61" x="54.024 57.131998 63.371995 69.34799 75.61199 79.679988 82.319988 86.38798 91.89597 95.003978 101.24398">Identity.pt</tspan></text>
</g>
<clipPath id="cp81">
<path transform="matrix(1,0,0,-1,0,792)" d="M .00000912 0 L 612 0 L 612 792 L .00000912 792 Z " fill-rule="evenodd"/>
</clipPath>
<g clip-path="url(#cp81)">
<text xml:space="preserve" transform="matrix(1 0 -0 1 0 792)" font-size="11.04" font-family="Calibri"><tspan y="-517.61" x="105.17"> </tspan></text>
</g>
<clipPath id="cp82">
<path transform="matrix(1,0,0,-1,0,792)" d="M .00000912 0 L 612 0 L 612 792 L .00000912 792 Z " fill-rule="evenodd"/>
</clipPath>
<g clip-path="url(#cp82)">
<text xml:space="preserve" transform="matrix(1 0 -0 1 0 792)" font-size="11.04" font-family="Calibri"><tspan y="-517.61" x="486.43 490.98954 493.61708 497.93373 503.7297 509.45948 515.22238 517.8609 520.2566 526.0085 531.77139 535.6243 539.21237 544.9752 550.2413 555.5294">Lisbon, Portugal</tspan></text>
</g>
<clipPath id="cp83">
<path transform="matrix(1,0,0,-1,0,792)" d="M .00000912 0 L 612 0 L 612 792 L .00000912 792 Z " fill-rule="evenodd"/>
</clipPath>
<g clip-path="url(#cp83)">
<text xml:space="preserve" transform="matrix(1 0 -0 1 0 792)" font-size="11.04" font-family="Calibri"><tspan y="-517.61" x="558.22"> </tspan></text>
</g>
<clipPath id="cp84">
<path transform="matrix(1,0,0,-1,0,792)" d="M .00000912 0 L 612 0 L 612 792 L .00000912 792 Z " fill-rule="evenodd"/>
</clipPath>
<g clip-path="url(#cp84)">
</g>
</g>
<g id="Layer-1" data-name="P">
<clipPath id="cp85">
<path transform="matrix(1,0,0,-1,0,792)" d="M .00000912 0 L 612 0 L 612 792 L .00000912 792 Z " fill-rule="evenodd"/>
</clipPath>
<g clip-path="url(#cp85)">
<text xml:space="preserve" transform="matrix(1 0 -0 1 0 792)" font-size="11.04" font-family="Calibri"><tspan y="-496.46" x="54.024">&#x25aa;</tspan></text>
</g>
<clipPath id="cp86">
<path transform="matrix(1,0,0,-1,0,792)" d="M .00000912 0 L 612 0 L 612 792 L .00000912 792 Z " fill-rule="evenodd"/>
</clipPath>
<g clip-path="url(#cp86)">
<text xml:space="preserve" transform="matrix(1 0 -0 1 0 792)" font-size="11.04" font-family="Arial"><tspan y="-496.46" x="57.864"> </tspan></text>
</g>
<clipPath id="cp87">
<path transform="matrix(1,0,0,-1,0,792)" d="M .00000912 0 L 612 0 L 612 792 L .00000912 792 Z " fill-rule="evenodd"/>
</clipPath>
<g clip-path="url(#cp87)">
<text xml:space="preserve" transform="matrix(1 0 -0 1 0 792)" font-size="11.04" font-family="Calibri"><tspan y="-496.46" x="67.464 70.3344 79.19952 84.962398 87.58991 92.86703 101.73215 107.230068 113.02606 116.61407 122.111988 127.90798 130.29262 135.58078 137.97646 146.84157 152.12973 154.7683 160.52014 164.37311 166.75775 170.12496 175.62288 180.91104 184.52112 190.284 194.13697 199.63489">Implemented a major feature </tspan></text>
</g>
<clipPath id="cp88">
<path transform="matrix(1,0,0,-1,0,792)" d="M .00000912 0 L 612 0 L 612 792 L .00000912 792 Z " fill-rule="evenodd"/>
</clipPath>
<g clip-path="url(#cp88)">
<text xml:space="preserve" transform="matrix(1 0 -0 1 0 792)" font-size="11.04" font-family="Calibri"><tspan y="-496.46" x="202.15">&#x2013;</tspan></text>
</g>
<clipPath id="cp89">
<path transform="matrix(1,0,0,-1,0,792)" d="M .00000912 0 L 612 0 L 612 792 L .00000912 792 Z " fill-rule="evenodd"/>
</clipPath>
<g clip-path="url(#cp89)">
<text xml:space="preserve" transform="matrix(1 0 -0 1 0 792)" font-size="11.04" font-family="Calibri"><tspan y="-496.46" x="207.67"> </tspan></text>
</g>
<clipPath id="cp90">
<path transform="matrix(1,0,0,-1,0,792)" d="M .00000912 0 L 612 0 L 612 792 L .00000912 792 Z " fill-rule="evenodd"/>
</clipPath>
<g clip-path="url(#cp90)">
<text xml:space="preserve" transform="matrix(1 0 -0 1 0 792)" font-size="11.04" font-family="Calibri"><tspan y="-496.46" x="210.07 219.89562 225.41562 231.1785 233.57418 239.55786 242.18538 244.8129 250.31082 256.1068 259.6948 262.09046 264.96086 270.72373 274.32276 279.82069 283.67366 287.04084 292.32899 296.87748 302.3754 304.79316 308.16035 313.91218 317.76515 320.14976 323.74879 329.51167 335.00959">Web Client Interface for the </tspan></text>
</g>
<clipPath id="cp91">
<path transform="matrix(1,0,0,-1,0,792)" d="M .00000912 0 L 612 0 L 612 792 L .00000912 792 Z " fill-rule="evenodd"/>
</clipPath>
<g clip-path="url(#cp91)">
<text xml:space="preserve" transform="matrix(1 0 -0 1 0 792)" font-size="11.04" font-family="Calibri"><tspan y="-496.46" x="337.56 343.06895 350.267 360.0926 362.51036 365.85548 371.15467 377.13835 380.73738 386.2353 390.08827 395.88426 399.69306 402.3206 406.63725 412.13517 414.56394 421.762 427.52488 433.0228 438.8188 441.2034 451.029 456.80293 460.65589 465.67909 469.99574 475.79173 481.04676 485.60627 491.1042">EOW (Enterprise Open Workspace)</tspan></text>
</g>
<clipPath id="cp92">
<path transform="matrix(1,0,0,-1,0,792)" d="M .00000912 0 L 612 0 L 612 792 L .00000912 792 Z " fill-rule="evenodd"/>
</clipPath>
<g clip-path="url(#cp92)">
<text xml:space="preserve" transform="matrix(1 0 -0 1 0 792)" font-size="11.04" font-family="Calibri"><tspan y="-496.46" x="494.59"> </tspan></text>
</g>
<clipPath id="cp93">
<path transform="matrix(1,0,0,-1,0,792)" d="M .00000912 0 L 612 0 L 612 792 L .00000912 792 Z " fill-rule="evenodd"/>
</clipPath>
<g clip-path="url(#cp93)">
<text xml:space="preserve" transform="matrix(1 0 -0 1 0 792)" font-size="11.04" font-family="Calibri"><tspan y="-496.46" x="496.99 502.75288 506.60585 512.35769 518.12057 524.10427 528.66378 532.2628 535.13327">product, </tspan></text>
</g>
<clipPath id="cp94">
<path transform="matrix(1,0,0,-1,0,792)" d="M .00000912 0 L 612 0 L 612 792 L .00000912 792 Z " fill-rule="evenodd"/>
</clipPath>
<g clip-path="url(#cp94)">
</g>
<clipPath id="cp95">
<path transform="matrix(1,0,0,-1,0,792)" d="M .00000912 0 L 612 0 L 612 792 L .00000912 792 Z " fill-rule="evenodd"/>
</clipPath>
<g clip-path="url(#cp95)">
<text xml:space="preserve" transform="matrix(1 0 -0 1 0 792)" font-size="11.04" font-family="Calibri"><tspan y="-481.1" x="67.464 75.3576 81.153598 83.77007 88.3296 94.092479 96.48816 99.11568 103.43232 105.83904 111.127208 116.87904 119.27473 124.56289 130.31473 136.0776 138.70513 141.33264 145.89217 151.18033 154.76833 157.39585 163.15872 168.9216 171.31728 176.35152 178.97904 182.832 186.42 192.18288 197.47104 200.08753 202.71504 207.03168 212.31984 215.90784 218.53536 224.29824 230.06111 232.45679 238.21967 240.84719 246.13535 249.72335 253.09055 258.84239 262.69535 271.5494 273.94508 281.83869 284.49934 288.09837 293.86125 296.2569 305.122 310.642 313.26954 316.86857">which is an application virtualization platform with multi</tspan></text>
</g>
<clipPath id="cp96">
<path transform="matrix(1,0,0,-1,0,792)" d="M .00000912 0 L 612 0 L 612 792 L .00000912 792 Z " fill-rule="evenodd"/>
</clipPath>
<g clip-path="url(#cp96)">
<text xml:space="preserve" transform="matrix(1 0 -0 1 0 792)" font-size="11.04" font-family="Calibri"><tspan y="-481.1" x="319.8">-</tspan></text>
</g>
<clipPath id="cp97">
<path transform="matrix(1,0,0,-1,0,792)" d="M .00000912 0 L 612 0 L 612 792 L .00000912 792 Z " fill-rule="evenodd"/>
</clipPath>
<g clip-path="url(#cp97)">
<text xml:space="preserve" transform="matrix(1 0 -0 1 0 792)" font-size="11.04" font-family="Calibri"><tspan y="-481.1" x="323.16 330.35807 335.4254 337.799 342.11567 347.91166 353.6414 359.40428 365.16716 369.0201 372.6081 375.4785">OS support. </tspan></text>
</g>
<clipPath id="cp98">
<path transform="matrix(1,0,0,-1,0,792)" d="M .00000912 0 L 612 0 L 612 792 L .00000912 792 Z " fill-rule="evenodd"/>
</clipPath>
<g clip-path="url(#cp98)">
<text xml:space="preserve" transform="matrix(1 0 -0 1 0 792)" font-size="11.04" font-family="Calibri"><tspan y="-481.1" x="378.14"> </tspan></text>
</g>
<clipPath id="cp99">
<path transform="matrix(1,0,0,-1,0,792)" d="M .00000912 0 L 612 0 L 612 792 L .00000912 792 Z " fill-rule="evenodd"/>
</clipPath>
<g clip-path="url(#cp99)">
</g>
</g>
<g id="Layer-1" data-name="P">
<clipPath id="cp100">
<path transform="matrix(1,0,0,-1,0,792)" d="M .00000912 0 L 612 0 L 612 792 L .00000912 792 Z " fill-rule="evenodd"/>
</clipPath>
<g clip-path="url(#cp100)">
<text xml:space="preserve" transform="matrix(1 0 -0 1 0 792)" font-size="11.04" font-family="Calibri"><tspan y="-465.5" x="54.024">&#x25aa;</tspan></text>
</g>
<clipPath id="cp101">
<path transform="matrix(1,0,0,-1,0,792)" d="M .00000912 0 L 612 0 L 612 792 L .00000912 792 Z " fill-rule="evenodd"/>
</clipPath>
<g clip-path="url(#cp101)">
<text xml:space="preserve" transform="matrix(1 0 -0 1 0 792)" font-size="11.04" font-family="Arial"><tspan y="-465.5" x="57.864"> </tspan></text>
</g>
<clipPath id="cp102">
<path transform="matrix(1,0,0,-1,0,792)" d="M .00000912 0 L 612 0 L 612 792 L .00000912 792 Z " fill-rule="evenodd"/>
</clipPath>
<g clip-path="url(#cp102)">
<text xml:space="preserve" transform="matrix(1 0 -0 1 0 792)" font-size="11.04" font-family="Calibri"><tspan y="-465.5" x="67.464 70.3344 79.19952 84.962398 88.81535 94.56719 99.60143 105.09935 110.89535 113.27999 118.56815 124.31999 130.08287 132.47855 138.24143 144.0043 147.60334 150.23085 159.09597 161.72348 166.04012 171.53804 177.33405 179.71869 183.08589 186.93886 192.67966 198.44254">Improved and optimized front</tspan></text>
</g>
<clipPath id="cp103">
<path transform="matrix(1,0,0,-1,0,792)" d="M .00000912 0 L 612 0 L 612 792 L .00000912 792 Z " fill-rule="evenodd"/>
</clipPath>
<g clip-path="url(#cp103)">
<text xml:space="preserve" transform="matrix(1 0 -0 1 0 792)" font-size="11.04" font-family="Calibri"><tspan y="-465.5" x="202.15">-</tspan></text>
</g>
<clipPath id="cp104">
<path transform="matrix(1,0,0,-1,0,792)" d="M .00000912 0 L 612 0 L 612 792 L .00000912 792 Z " fill-rule="evenodd"/>
</clipPath>
<g clip-path="url(#cp104)">
<text xml:space="preserve" transform="matrix(1 0 -0 1 0 792)" font-size="11.04" font-family="Calibri"><tspan y="-465.5" x="205.51 211.00792 216.80393 222.54473 224.9404 229.49993 235.2628 241.02568 246.5236 252.31961 257.60777 261.9244 267.42234 269.82905 275.1172 280.86903 286.6319 289.02757 297.89268 300.5202 306.28309 308.9106 317.77574 320.40327 324.7199 330.21784 336.01383 338.39845 345.34263 350.61976 355.89686 361.64869 364.04435 367.8973 373.39524 379.19123 384.92097 390.41889 394.73554 398.35667 402.6733 405.08003 408.67906 414.44194 416.8376 420.4366 426.1995 431.69743 434.34703 440.1099 445.39805 449.94654">end codebase and minimized HTTP requests to the back</tspan></text>
</g>
<clipPath id="cp105">
<path transform="matrix(1,0,0,-1,0,792)" d="M .00000912 0 L 612 0 L 612 792 L .00000912 792 Z " fill-rule="evenodd"/>
</clipPath>
<g clip-path="url(#cp105)">
<text xml:space="preserve" transform="matrix(1 0 -0 1 0 792)" font-size="11.04" font-family="Calibri"><tspan y="-465.5" x="455.21">-</tspan></text>
</g>
<clipPath id="cp106">
<path transform="matrix(1,0,0,-1,0,792)" d="M .00000912 0 L 612 0 L 612 792 L .00000912 792 Z " fill-rule="evenodd"/>
</clipPath>
<g clip-path="url(#cp106)">
<text xml:space="preserve" transform="matrix(1 0 -0 1 0 792)" font-size="11.04" font-family="Calibri"><tspan y="-465.5" x="458.57 464.06794 469.86393 475.6047">end.</tspan></text>
</g>
<clipPath id="cp107">
<path transform="matrix(1,0,0,-1,0,792)" d="M .00000912 0 L 612 0 L 612 792 L .00000912 792 Z " fill-rule="evenodd"/>
</clipPath>
<g clip-path="url(#cp107)">
<text xml:space="preserve" transform="matrix(1 0 -0 1 0 792)" font-size="11.04" font-family="Calibri"><tspan y="-465.5" x="478.49"> </tspan></text>
</g>
<clipPath id="cp108">
<path transform="matrix(1,0,0,-1,0,792)" d="M .00000912 0 L 612 0 L 612 792 L .00000912 792 Z " fill-rule="evenodd"/>
</clipPath>
<g clip-path="url(#cp108)">
</g>
</g>
<g id="Layer-1" data-name="P">
<clipPath id="cp109">
<path transform="matrix(1,0,0,-1,0,792)" d="M .00000912 0 L 612 0 L 612 792 L .00000912 792 Z " fill-rule="evenodd"/>
</clipPath>
<g clip-path="url(#cp109)">
<text xml:space="preserve" transform="matrix(1 0 -0 1 0 792)" font-size="11.04" font-family="Calibri"><tspan y="-450.14" x="54.024">&#x25aa;</tspan></text>
</g>
<clipPath id="cp110">
<path transform="matrix(1,0,0,-1,0,792)" d="M .00000912 0 L 612 0 L 612 792 L .00000912 792 Z " fill-rule="evenodd"/>
</clipPath>
<g clip-path="url(#cp110)">
<text xml:space="preserve" transform="matrix(1 0 -0 1 0 792)" font-size="11.04" font-family="Arial"><tspan y="-450.14" x="57.864"> </tspan></text>
</g>
<clipPath id="cp111">
<path transform="matrix(1,0,0,-1,0,792)" d="M .00000912 0 L 612 0 L 612 792 L .00000912 792 Z " fill-rule="evenodd"/>
</clipPath>
<g clip-path="url(#cp111)">
<text xml:space="preserve" transform="matrix(1 0 -0 1 0 792)" font-size="11.04" font-family="Calibri"><tspan y="-450.14" x="67.464 77.2896 83.063518 86.91647 91.939678 97.43759 103.23359 105.61823 108.985439 114.737277 117.36479 119.99231 125.75519 133.64879 136.30944 141.82944 147.09552 149.4912 154.55857 160.52017 166.28305 173.4701 182.832 185.22768 194.09279 199.59072 203.21183 208.9747 214.73758 220.50046 226.26334 228.89086 234.65373 239.91982 244.95406 247.82445 250.22013 255.49724 260.99516 265.57676 271.33964 277.1025 282.8654 285.49293 291.2558 296.52189 299.1494 304.42655 308.7432 311.1499 316.91279 321.22944 326.72737 332.52336 335.39375 337.7894 341.3774 346.66557 351.68876 356.9769 362.01115 366.57066 370.4236 373.0401 378.80299 382.402 385.0406 387.43626 393.18809 398.22233 401.82136 407.58424 413.3471 419.11 421.9804 424.37608 430.1279 437.07209 442.8239 445.21958 450.50773 456.25956 462.02244 464.4181 469.48545 475.92176 480.9891">Worked following SCRUM methodology. Technologies used: JavaScript, Python, PHP and SASS</tspan></text>
</g>
<clipPath id="cp112">
<path transform="matrix(1,0,0,-1,0,792)" d="M .00000912 0 L 612 0 L 612 792 L .00000912 792 Z " fill-rule="evenodd"/>
</clipPath>
<g clip-path="url(#cp112)">
<text xml:space="preserve" transform="matrix(1 0 -0 1 0 792)" font-size="11.04" font-family="Calibri"><tspan y="-450.14" x="486.43">.</tspan></text>
</g>
<clipPath id="cp113">
<path transform="matrix(1,0,0,-1,0,792)" d="M .00000912 0 L 612 0 L 612 792 L .00000912 792 Z " fill-rule="evenodd"/>
</clipPath>
<g clip-path="url(#cp113)">
<text xml:space="preserve" transform="matrix(1 0 -0 1 0 792)" font-size="11.04" font-family="Calibri"><tspan y="-450.14" x="489.31"> </tspan></text>
</g>
<clipPath id="cp114">
<path transform="matrix(1,0,0,-1,0,792)" d="M .00000912 0 L 612 0 L 612 792 L .00000912 792 Z " fill-rule="evenodd"/>
</clipPath>
<g clip-path="url(#cp114)">
</g>
</g>
<g id="Layer-1" data-name="P">
<clipPath id="cp115">
<path transform="matrix(1,0,0,-1,0,792)" d="M .00000912 0 L 612 0 L 612 792 L .00000912 792 Z " fill-rule="evenodd"/>
</clipPath>
<g clip-path="url(#cp115)">
<text xml:space="preserve" transform="matrix(1 0 -0 1 0 792)" font-size="11.04" font-family="Calibri"><tspan y="-434.78" x="85.464"> </tspan></text>
</g>
<clipPath id="cp116">
<path transform="matrix(1,0,0,-1,0,792)" d="M .00000912 0 L 612 0 L 612 792 L .00000912 792 Z " fill-rule="evenodd"/>
</clipPath>
<g clip-path="url(#cp116)">
</g>
</g>
<g id="Layer-1" data-name="P">
<clipPath id="cp117">
<path transform="matrix(1,0,0,-1,0,792)" d="M .00000912 0 L 612 0 L 612 792 L .00000912 792 Z " fill-rule="evenodd"/>
</clipPath>
<g clip-path="url(#cp117)">
<text xml:space="preserve" transform="matrix(1 0 -0 1 0 792)" font-size="12" font-family="Calibri,Bold" font-weight="bold"><tspan y="-420.38" x="54.024 59.531999 63.852 70.308 76.799999">Front</tspan></text>
</g>
<clipPath id="cp118">
<path transform="matrix(1,0,0,-1,0,792)" d="M .00000912 0 L 612 0 L 612 792 L .00000912 792 Z " fill-rule="evenodd"/>
</clipPath>
<g clip-path="url(#cp118)">
<text xml:space="preserve" transform="matrix(1 0 -0 1 0 792)" font-size="12" font-family="Calibri,Bold" font-weight="bold"><tspan y="-420.38" x="80.904">-</tspan></text>
</g>
<clipPath id="cp119">
<path transform="matrix(1,0,0,-1,0,792)" d="M .00000912 0 L 612 0 L 612 792 L .00000912 792 Z " fill-rule="evenodd"/>
</clipPath>
<g clip-path="url(#cp119)">
<text xml:space="preserve" transform="matrix(1 0 -0 1 0 792)" font-size="12" font-family="Calibri,Bold" font-weight="bold"><tspan y="-420.38" x="84.504 90.264 96.732 103.200008 105.840007 113.508 119.508 125.256008 131.25601 134.136 140.592 147.084 153.084">End Developer</tspan></text>
</g>
<clipPath id="cp120">
<path transform="matrix(1,0,0,-1,0,792)" d="M .00000912 0 L 612 0 L 612 792 L .00000912 792 Z " fill-rule="evenodd"/>
</clipPath>
<g clip-path="url(#cp120)">
<text xml:space="preserve" transform="matrix(1 0 -0 1 0 792)" font-size="11.04" font-family="Calibri,Bold" font-weight="bold"><tspan y="-420.38" x="157.49"> </tspan></text>
</g>
<clipPath id="cp121">
<path transform="matrix(1,0,0,-1,0,792)" d="M .00000912 0 L 612 0 L 612 792 L .00000912 792 Z " fill-rule="evenodd"/>
</clipPath>
<g clip-path="url(#cp121)">
<text xml:space="preserve" transform="matrix(1 0 -0 1 0 792)" font-size="11.04" font-family="Calibri"><tspan y="-420.38" x="465.53 470.59736 476.09529 481.8471">Sep </tspan></text>
</g>
<clipPath id="cp122">
<path transform="matrix(1,0,0,-1,0,792)" d="M .00000912 0 L 612 0 L 612 792 L .00000912 792 Z " fill-rule="evenodd"/>
</clipPath>
<g clip-path="url(#cp122)">
<text xml:space="preserve" transform="matrix(1 0 -0 1 0 792)" font-size="11.04" font-family="Calibri"><tspan y="-420.38" x="484.27 489.78999">20</tspan></text>
</g>
<clipPath id="cp123">
<path transform="matrix(1,0,0,-1,0,792)" d="M .00000912 0 L 612 0 L 612 792 L .00000912 792 Z " fill-rule="evenodd"/>
</clipPath>
<g clip-path="url(#cp123)">
<text xml:space="preserve" transform="matrix(1 0 -0 1 0 792)" font-size="11.04" font-family="Calibri"><tspan y="-420.38" x="495.31 500.83">20</tspan></text>
</g>
<clipPath id="cp124">
<path transform="matrix(1,0,0,-1,0,792)" d="M .00000912 0 L 612 0 L 612 792 L .00000912 792 Z " fill-rule="evenodd"/>
</clipPath>
<g clip-path="url(#cp124)">
<text xml:space="preserve" transform="matrix(1 0 -0 1 0 792)" font-size="11.04" font-family="Calibri"><tspan y="-420.38" x="506.59"> </tspan></text>
</g>
<clipPath id="cp125">
<path transform="matrix(1,0,0,-1,0,792)" d="M .00000912 0 L 612 0 L 612 792 L .00000912 792 Z " fill-rule="evenodd"/>
</clipPath>
<g clip-path="url(#cp125)">
<text xml:space="preserve" transform="matrix(1 0 -0 1 0 792)" font-size="11.04" font-family="Calibri"><tspan y="-420.38" x="508.99">&#x2013;</tspan></text>
</g>
<clipPath id="cp126">
<path transform="matrix(1,0,0,-1,0,792)" d="M .00000912 0 L 612 0 L 612 792 L .00000912 792 Z " fill-rule="evenodd"/>
</clipPath>
<g clip-path="url(#cp126)">
<text xml:space="preserve" transform="matrix(1 0 -0 1 0 792)" font-size="11.04" font-family="Calibri"><tspan y="-420.38" x="514.51"> </tspan></text>
</g>
<clipPath id="cp127">
<path transform="matrix(1,0,0,-1,0,792)" d="M .00000912 0 L 612 0 L 612 792 L .00000912 792 Z " fill-rule="evenodd"/>
</clipPath>
<g clip-path="url(#cp127)">
<text xml:space="preserve" transform="matrix(1 0 -0 1 0 792)" font-size="11.04" font-family="Calibri"><tspan y="-420.38" x="516.91 521.97738 527.4753">Feb</tspan></text>
</g>
<clipPath id="cp128">
<path transform="matrix(1,0,0,-1,0,792)" d="M .00000912 0 L 612 0 L 612 792 L .00000912 792 Z " fill-rule="evenodd"/>
</clipPath>
<g clip-path="url(#cp128)">
<text xml:space="preserve" transform="matrix(1 0 -0 1 0 792)" font-size="11.04" font-family="Calibri"><tspan y="-420.38" x="533.23"> </tspan></text>
</g>
<clipPath id="cp129">
<path transform="matrix(1,0,0,-1,0,792)" d="M .00000912 0 L 612 0 L 612 792 L .00000912 792 Z " fill-rule="evenodd"/>
</clipPath>
<g clip-path="url(#cp129)">
<text xml:space="preserve" transform="matrix(1 0 -0 1 0 792)" font-size="11.04" font-family="Calibri"><tspan y="-420.38" x="535.63 541.14999">20</tspan></text>
</g>
<clipPath id="cp130">
<path transform="matrix(1,0,0,-1,0,792)" d="M .00000912 0 L 612 0 L 612 792 L .00000912 792 Z " fill-rule="evenodd"/>
</clipPath>
<g clip-path="url(#cp130)">
<text xml:space="preserve" transform="matrix(1 0 -0 1 0 792)" font-size="11.04" font-family="Calibri"><tspan y="-420.38" x="546.91 552.42996">21</tspan></text>
</g>
<clipPath id="cp131">
<path transform="matrix(1,0,0,-1,0,792)" d="M .00000912 0 L 612 0 L 612 792 L .00000912 792 Z " fill-rule="evenodd"/>
</clipPath>
<g clip-path="url(#cp131)">
<text xml:space="preserve" transform="matrix(1 0 -0 1 0 792)" font-size="11.04" font-family="Calibri"><tspan y="-420.38" x="558.22"> </tspan></text>
</g>
<clipPath id="cp132">
<path transform="matrix(1,0,0,-1,0,792)" d="M .00000912 0 L 612 0 L 612 792 L .00000912 792 Z " fill-rule="evenodd"/>
</clipPath>
<g clip-path="url(#cp132)">
</g>
</g>
<g id="Layer-1" data-name="P">
<clipPath id="cp133">
<path transform="matrix(1,0,0,-1,0,792)" d="M .00000912 0 L 612 0 L 612 792 L .00000912 792 Z " fill-rule="evenodd"/>
</clipPath>
<g clip-path="url(#cp133)">
<text xml:space="preserve" transform="matrix(1 0 -0 1 0 792)" font-size="12" font-family="Calibri"><tspan y="-405.72" x="54.024 59.531999 63.623998 69.6 75.612 78.252 84 90.25201 95.292 101.268">Freelancer</tspan></text>
</g>
<clipPath id="cp134">
<path transform="matrix(1,0,0,-1,0,792)" d="M .00000912 0 L 612 0 L 612 792 L .00000912 792 Z " fill-rule="evenodd"/>
</clipPath>
<g clip-path="url(#cp134)">
<text xml:space="preserve" transform="matrix(1 0 -0 1 0 792)" font-size="12" font-family="Calibri"><tspan y="-405.72" x="105.65"> </tspan></text>
</g>
<clipPath id="cp135">
<path transform="matrix(1,0,0,-1,0,792)" d="M .00000912 0 L 612 0 L 612 792 L .00000912 792 Z " fill-rule="evenodd"/>
</clipPath>
<g clip-path="url(#cp135)">
<text xml:space="preserve" transform="matrix(1 0 -0 1 0 792)" font-size="11.04" font-family="Calibri"><tspan y="-405.72" x="108.53"> </tspan></text>
</g>
<clipPath id="cp136">
<path transform="matrix(1,0,0,-1,0,792)" d="M .00000912 0 L 612 0 L 612 792 L .00000912 792 Z " fill-rule="evenodd"/>
</clipPath>
<g clip-path="url(#cp136)">
<text xml:space="preserve" transform="matrix(1 0 -0 1 0 792)" font-size="11.04" font-family="Calibri"><tspan y="-405.72" x="486.43 490.98954 493.61708 497.93373 503.7297 509.45948 515.22238 517.8609 520.2566 526.0085 531.77139 535.6243 539.21237 544.9752 550.2413 555.5294">Lisbon, Portugal</tspan></text>
</g>
<clipPath id="cp137">
<path transform="matrix(1,0,0,-1,0,792)" d="M .00000912 0 L 612 0 L 612 792 L .00000912 792 Z " fill-rule="evenodd"/>
</clipPath>
<g clip-path="url(#cp137)">
<text xml:space="preserve" transform="matrix(1 0 -0 1 0 792)" font-size="11.04" font-family="Calibri"><tspan y="-405.72" x="558.22"> </tspan></text>
</g>
<clipPath id="cp138">
<path transform="matrix(1,0,0,-1,0,792)" d="M .00000912 0 L 612 0 L 612 792 L .00000912 792 Z " fill-rule="evenodd"/>
</clipPath>
<g clip-path="url(#cp138)">
</g>
</g>
<g id="Layer-1" data-name="P">
<clipPath id="cp139">
<path transform="matrix(1,0,0,-1,0,792)" d="M .00000912 0 L 612 0 L 612 792 L .00000912 792 Z " fill-rule="evenodd"/>
</clipPath>
<g clip-path="url(#cp139)">
<text xml:space="preserve" transform="matrix(1 0 -0 1 0 792)" font-size="11.04" font-family="Times New Roman"><tspan y="-384.6" x="54.024">&#x25aa;</tspan></text>
</g>
<clipPath id="cp140">
<path transform="matrix(1,0,0,-1,0,792)" d="M .00000912 0 L 612 0 L 612 792 L .00000912 792 Z " fill-rule="evenodd"/>
</clipPath>
<g clip-path="url(#cp140)">
<text xml:space="preserve" transform="matrix(1 0 -0 1 0 792)" font-size="11.04" font-family="Arial"><tspan y="-384.6" x="57.864"> </tspan></text>
</g>
<clipPath id="cp141">
<path transform="matrix(1,0,0,-1,0,792)" d="M .00000912 0 L 612 0 L 612 792 L .00000912 792 Z " fill-rule="evenodd"/>
</clipPath>
<g clip-path="url(#cp141)">
<text xml:space="preserve" transform="matrix(1 0 -0 1 0 792)" font-size="11.04" font-family="Calibri"><tspan y="-384.6" x="67.464 74.187358 79.68527 84.001918 86.65151 91.91759 97.680469 103.17838 108.97438 111.359027 116.64719 122.399028 128.1619 130.55757 133.18509 142.0502 147.81308 150.20876 155.70668 164.59387 170.0918 175.8878 179.4758 184.97373 190.76973 193.15438 201.04798 206.57903 212.3419 216.4267 219.05422 222.65325 228.15117 232.4678 234.8966 238.26381 244.01566 247.86862 250.25327 254.81279 260.57566 269.44078 275.20365 280.4918 286.24363 288.87117 294.36909 298.68574 301.1145 306.40266 312.15449 317.91737 320.31303 326.0759 329.92887 335.1839 340.47206 346.22389 348.8514 353.16807 358.4562 362.0442 364.67173 370.4346 376.19749 380.51414 382.92085 390.81446 393.4751 397.07414 402.837 405.23268 408.8317 414.59458 420.0925 422.51026 427.77635 433.5392 438.82737 441.44386 443.8395 447.43855 453.20143 455.59709 458.2246 467.08973 472.8526 476.70558 482.4574 487.49165 492.98957 495.40733 499.00636 504.76924 510.26716 512.91677 516.7697">Designed and implemented websites for companies and organizations with the goal to improve their </tspan></text>
</g>
<clipPath id="cp142">
<path transform="matrix(1,0,0,-1,0,792)" d="M .00000912 0 L 612 0 L 612 792 L .00000912 792 Z " fill-rule="evenodd"/>
</clipPath>
<g clip-path="url(#cp142)">
</g>
<clipPath id="cp143">
<path transform="matrix(1,0,0,-1,0,792)" d="M .00000912 0 L 612 0 L 612 792 L .00000912 792 Z " fill-rule="evenodd"/>
</clipPath>
<g clip-path="url(#cp143)">
<text xml:space="preserve" transform="matrix(1 0 -0 1 0 792)" font-size="11.04" font-family="Calibri"><tspan y="-369.24" x="67.464 72.49824 75.125759 79.4424 82.069919 87.58991 90.21743 92.61311 95.24063 98.839679 103.87392 106.51248 108.908168 117.773288 123.06145 126.914409 131.9376 137.43553 141.05664 143.68416 149.44704 154.71312 157.1088 162.39696 168.1488 173.91168 176.30736 182.07024 185.9232 191.67505 195.04225 197.65874 201.25777 206.54593 212.29778 214.9253 217.32097 219.94849 223.54752 228.58176">visibility, marketing and profitability.</tspan></text>
</g>
<clipPath id="cp144">
<path transform="matrix(1,0,0,-1,0,792)" d="M .00000912 0 L 612 0 L 612 792 L .00000912 792 Z " fill-rule="evenodd"/>
</clipPath>
<g clip-path="url(#cp144)">
<text xml:space="preserve" transform="matrix(1 0 -0 1 0 792)" font-size="11.04" font-family="Calibri"><tspan y="-369.24" x="231.46"> </tspan></text>
</g>
<clipPath id="cp145">
<path transform="matrix(1,0,0,-1,0,792)" d="M .00000912 0 L 612 0 L 612 792 L .00000912 792 Z " fill-rule="evenodd"/>
</clipPath>
<g clip-path="url(#cp145)">
</g>
</g>
<g id="Layer-1" data-name="P">
<clipPath id="cp146">
<path transform="matrix(1,0,0,-1,0,792)" d="M .00000912 0 L 612 0 L 612 792 L .00000912 792 Z " fill-rule="evenodd"/>
</clipPath>
<g clip-path="url(#cp146)">
<text xml:space="preserve" transform="matrix(1 0 -0 1 0 792)" font-size="11.04" font-family="Times New Roman"><tspan y="-353.88" x="54.024">&#x25aa;</tspan></text>
</g>
<clipPath id="cp147">
<path transform="matrix(1,0,0,-1,0,792)" d="M .00000912 0 L 612 0 L 612 792 L .00000912 792 Z " fill-rule="evenodd"/>
</clipPath>
<g clip-path="url(#cp147)">
<text xml:space="preserve" transform="matrix(1 0 -0 1 0 792)" font-size="11.04" font-family="Arial"><tspan y="-353.88" x="57.864"> </tspan></text>
</g>
<clipPath id="cp148">
<path transform="matrix(1,0,0,-1,0,792)" d="M .00000912 0 L 612 0 L 612 792 L .00000912 792 Z " fill-rule="evenodd"/>
</clipPath>
<g clip-path="url(#cp148)">
<text xml:space="preserve" transform="matrix(1 0 -0 1 0 792)" font-size="11.04" font-family="Calibri"><tspan y="-353.88" x="67.464 77.2896 83.063518 86.91647 91.939678 97.43759 103.23359 105.61823 111.38111 115.697757 118.32527 124.08815 129.35424 131.74991 135.34894 140.84687 145.42847 151.19135 156.95423 162.7171 165.34462 171.1075 176.37358 179.0011 184.49903 188.81566 191.24446 195.5611 201.3571 205.8835 211.64638 214.04206 219.33022 223.64685 226.51726 228.91294 234.90766 240.40558 245.69374 250.27535 253.87438 256.74479 259.38334 263.69999 266.34959">Worked using technologies such as: React.js, </tspan></text>
</g>
<clipPath id="cp149">
<path transform="matrix(1,0,0,-1,0,792)" d="M .00000912 0 L 612 0 L 612 792 L .00000912 792 Z " fill-rule="evenodd"/>
</clipPath>
<g clip-path="url(#cp149)">
<text xml:space="preserve" transform="matrix(1 0 -0 1 0 792)" font-size="11.04" font-family="Calibri"><tspan y="-353.88" x="268.9 274.17713 279.21138 284.97425 290.47218 295.7603 300.31983 304.1728 306.78929 312.55216 316.15119 318.78977 321.18544 324.77345 330.06159 335.08479 340.37294 345.40718 349.96669 353.81965 356.43614 362.199 365.79804 368.66847 371.06413 376.13148 382.56779 387.63514 392.64729 395.28587 397.68153 403.6652 408.73255 413.7447 419.2647 422.13514 424.5308 431.47499 436.75209 446.114 450.67356 456.19358 458.58924 463.87739 469.86106 475.62394 478.0196 483.08695 485.6924 490.9585 499.8236 505.11177">TypeScript, JavaScript, SASS, CSS3, HTML5 and Figma.</tspan></text>
</g>
<clipPath id="cp150">
<path transform="matrix(1,0,0,-1,0,792)" d="M .00000912 0 L 612 0 L 612 792 L .00000912 792 Z " fill-rule="evenodd"/>
</clipPath>
<g clip-path="url(#cp150)">
<text xml:space="preserve" transform="matrix(1 0 -0 1 0 792)" font-size="11.04" font-family="Calibri"><tspan y="-353.88" x="508.03"> </tspan></text>
</g>
<clipPath id="cp151">
<path transform="matrix(1,0,0,-1,0,792)" d="M .00000912 0 L 612 0 L 612 792 L .00000912 792 Z " fill-rule="evenodd"/>
</clipPath>
<g clip-path="url(#cp151)">
</g>
</g>
<g id="Layer-1" data-name="P">
<clipPath id="cp152">
<path transform="matrix(1,0,0,-1,0,792)" d="M .00000912 0 L 612 0 L 612 792 L .00000912 792 Z " fill-rule="evenodd"/>
</clipPath>
<g clip-path="url(#cp152)">
<text xml:space="preserve" transform="matrix(1 0 -0 1 0 792)" font-size="11.04" font-family="Calibri"><tspan y="-338.28" x="54.024"> </tspan></text>
</g>
<clipPath id="cp153">
<path transform="matrix(1,0,0,-1,0,792)" d="M .00000912 0 L 612 0 L 612 792 L .00000912 792 Z " fill-rule="evenodd"/>
</clipPath>
<g clip-path="url(#cp153)">
</g>
</g>
<g id="Layer-1" data-name="P">
<clipPath id="cp154">
<path transform="matrix(1,0,0,-1,0,792)" d="M .00000912 0 L 612 0 L 612 792 L .00000912 792 Z " fill-rule="evenodd"/>
</clipPath>
<g clip-path="url(#cp154)">
<text xml:space="preserve" transform="matrix(1 0 -0 1 0 792)" font-size="11.04" font-family="Calibri"><tspan y="-324.82" x="54.024"> </tspan></text>
</g>
<clipPath id="cp155">
<path transform="matrix(1,0,0,-1,0,792)" d="M .00000912 0 L 612 0 L 612 792 L .00000912 792 Z " fill-rule="evenodd"/>
</clipPath>
<g clip-path="url(#cp155)">
</g>
</g>
<g id="Layer-1" data-name="P">
<clipPath id="cp156">
<path transform="matrix(1,0,0,-1,0,792)" d="M .00000912 0 L 612 0 L 612 792 L .00000912 792 Z " fill-rule="evenodd"/>
</clipPath>
<g clip-path="url(#cp156)">
<text xml:space="preserve" transform="matrix(1 0 -0 1 0 792)" font-size="13.92" font-family="Calibri,Bold" font-weight="bold"><tspan y="-308.74" x="54.024 60.74736 69.6144 78.70416 86.16528 94.6008 101.4912 105.12432 114.7152">EDUCATION</tspan></text>
</g>
<clipPath id="cp157">
<path transform="matrix(1,0,0,-1,0,792)" d="M .00000912 0 L 612 0 L 612 792 L .00000912 792 Z " fill-rule="evenodd"/>
</clipPath>
<g clip-path="url(#cp157)">
<text xml:space="preserve" transform="matrix(1 0 -0 1 0 792)" font-size="12.96" font-family="Calibri,Bold" font-weight="bold"><tspan y="-308.74" x="124.13"> </tspan></text>
</g>
<clipPath id="cp158">
<path transform="matrix(1,0,0,-1,0,792)" d="M .00000912 0 L 612 0 L 612 792 L .00000912 792 Z " fill-rule="evenodd"/>
</clipPath>
<g clip-path="url(#cp158)">
<text xml:space="preserve" transform="matrix(1 0 -0 1 0 792)" font-size="12.96" font-family="Calibri,Bold" font-weight="bold"><tspan y="-308.74" x="306.12"> </tspan></text>
</g>
<clipPath id="cp159">
<path transform="matrix(1,0,0,-1,0,792)" d="M .00000912 0 L 612 0 L 612 792 L .00000912 792 Z " fill-rule="evenodd"/>
</clipPath>
<g clip-path="url(#cp159)">
<text xml:space="preserve" transform="matrix(1 0 -0 1 0 792)" font-size="12.96" font-family="Calibri,Bold" font-weight="bold"><tspan y="-308.74" x="342.12"> </tspan></text>
</g>
<clipPath id="cp160">
<path transform="matrix(1,0,0,-1,0,792)" d="M .00000912 0 L 612 0 L 612 792 L .00000912 792 Z " fill-rule="evenodd"/>
</clipPath>
<g clip-path="url(#cp160)">
<text xml:space="preserve" transform="matrix(1 0 -0 1 0 792)" font-size="12.96" font-family="Calibri,Bold" font-weight="bold"><tspan y="-308.74" x="378.14"> </tspan></text>
</g>
<clipPath id="cp161">
<path transform="matrix(1,0,0,-1,0,792)" d="M .00000912 0 L 612 0 L 612 792 L .00000912 792 Z " fill-rule="evenodd"/>
</clipPath>
<g clip-path="url(#cp161)">
<text xml:space="preserve" transform="matrix(1 0 -0 1 0 792)" font-size="12.96" font-family="Calibri,Bold" font-weight="bold"><tspan y="-308.74" x="414.14"> </tspan></text>
</g>
<clipPath id="cp162">
<path transform="matrix(1,0,0,-1,0,792)" d="M .00000912 0 L 612 0 L 612 792 L .00000912 792 Z " fill-rule="evenodd"/>
</clipPath>
<g clip-path="url(#cp162)">
<text xml:space="preserve" transform="matrix(1 0 -0 1 0 792)" font-size="12.96" font-family="Calibri,Bold" font-weight="bold"><tspan y="-308.74" x="450.17"> </tspan></text>
</g>
<clipPath id="cp163">
<path transform="matrix(1,0,0,-1,0,792)" d="M .00000912 0 L 612 0 L 612 792 L .00000912 792 Z " fill-rule="evenodd"/>
</clipPath>
<g clip-path="url(#cp163)">
<text xml:space="preserve" transform="matrix(1 0 -0 1 0 792)" font-size="12.96" font-family="Calibri,Bold" font-weight="bold"><tspan y="-308.74" x="486.19 489.0671 491.9442 494.82133 497.69844 500.57554 503.6859 506.56303 509.44013 512.31729 515.4277 518.3048 521.18197 524.0591 527.1695 530.04666 532.92379 535.8009 538.9113 541.78848 544.6656 547.5427 550.65316 553.5303 556.4074 559.28457">                          </tspan></text>
</g>
<clipPath id="cp164">
<path transform="matrix(1,0,0,-1,0,792)" d="M .00000912 0 L 612 0 L 612 792 L .00000912 792 Z " fill-rule="evenodd"/>
</clipPath>
<g clip-path="url(#cp164)">
<text xml:space="preserve" transform="matrix(1 0 -0 1 0 792)" font-size="12.96" font-family="Calibri,Bold" font-weight="bold"><tspan y="-308.74" x="562.54"> </tspan></text>
</g>
<clipPath id="cp165">
<path transform="matrix(1,0,0,-1,0,792)" d="M .00000912 0 L 612 0 L 612 792 L .00000912 792 Z " fill-rule="evenodd"/>
</clipPath>
<g clip-path="url(#cp165)">
<path transform="matrix(1,0,0,-1,0,792)" d="M 52.584 299.14 L 559.654 299.14 L 559.654 301.30003 L 52.584 301.30003 Z " fill="#6c6c6c" fill-rule="evenodd"/>
</g>
</g>
<g id="Layer-1" data-name="P">
<clipPath id="cp166">
<path transform="matrix(1,0,0,-1,0,792)" d="M .00000912 0 L 612 0 L 612 792 L .00000912 792 Z " fill-rule="evenodd"/>
</clipPath>
<g clip-path="url(#cp166)">
<text xml:space="preserve" transform="matrix(1 0 -0 1 0 792)" font-size="7.92" font-family="Calibri,Bold" font-weight="bold"><tspan y="-291.46" x="54.024"> </tspan></text>
</g>
<clipPath id="cp167">
<path transform="matrix(1,0,0,-1,0,792)" d="M .00000912 0 L 612 0 L 612 792 L .00000912 792 Z " fill-rule="evenodd"/>
</clipPath>
<g clip-path="url(#cp167)">
</g>
</g>
<g id="Layer-1" data-name="P">
<clipPath id="cp168">
<path transform="matrix(1,0,0,-1,0,792)" d="M .00000912 0 L 612 0 L 612 792 L .00000912 792 Z " fill-rule="evenodd"/>
</clipPath>
<g clip-path="url(#cp168)">
<text xml:space="preserve" transform="matrix(1 0 -0 1 0 792)" font-size="12" font-family="Calibri,Bold" font-weight="bold"><tspan y="-277.78" x="54.024 60.755998 66.731998 71.74799 78.23999 84.23999 87.119998 93.576 97.908 101.004 105.816 108.456 116.124 122.124 127.872 132.18001 138.18001 144.18001 146.82 149.7 156.168 158.808 165.048 171.504 181.35599 187.82399 194.29199 198.372 204.372 208.68 211.31999 217.068 222.084 224.98799 230.98799 237.456 242.472 248.508 251.136 257.124 263.59199 270.05998 272.69999 278.45997 284.92796 290.67594 293.55595 300.02394 306.02394 312.02394 316.33195 319.21195 325.67994">Bachelor&#x2019;s Degree in Computer Science and Engineering</tspan></text>
</g>
<clipPath id="cp169">
<path transform="matrix(1,0,0,-1,0,792)" d="M .00000912 0 L 612 0 L 612 792 L .00000912 792 Z " fill-rule="evenodd"/>
</clipPath>
<g clip-path="url(#cp169)">
<text xml:space="preserve" transform="matrix(1 0 -0 1 0 792)" font-size="11.04" font-family="Calibri,Bold" font-weight="bold"><tspan y="-277.78" x="331.8"> </tspan></text>
</g>
<clipPath id="cp170">
<path transform="matrix(1,0,0,-1,0,792)" d="M .00000912 0 L 612 0 L 612 792 L .00000912 792 Z " fill-rule="evenodd"/>
</clipPath>
<g clip-path="url(#cp170)">
<text xml:space="preserve" transform="matrix(1 0 -0 1 0 792)" font-size="11.04" font-family="Calibri"><tspan y="-277.78" x="465.29 470.35737 475.8553 481.60713 484.00279 489.5228 495.04283 500.56285 506.3147">Sep 2020 </tspan></text>
</g>
<clipPath id="cp171">
<path transform="matrix(1,0,0,-1,0,792)" d="M .00000912 0 L 612 0 L 612 792 L .00000912 792 Z " fill-rule="evenodd"/>
</clipPath>
<g clip-path="url(#cp171)">
<text xml:space="preserve" transform="matrix(1 0 -0 1 0 792)" font-size="11.04" font-family="Calibri"><tspan y="-277.78" x="508.75">&#x2013;</tspan></text>
</g>
<clipPath id="cp172">
<path transform="matrix(1,0,0,-1,0,792)" d="M .00000912 0 L 612 0 L 612 792 L .00000912 792 Z " fill-rule="evenodd"/>
</clipPath>
<g clip-path="url(#cp172)">
<text xml:space="preserve" transform="matrix(1 0 -0 1 0 792)" font-size="11.04" font-family="Calibri"><tspan y="-277.78" x="514.27"> </tspan></text>
</g>
<clipPath id="cp173">
<path transform="matrix(1,0,0,-1,0,792)" d="M .00000912 0 L 612 0 L 612 792 L .00000912 792 Z " fill-rule="evenodd"/>
</clipPath>
<g clip-path="url(#cp173)">
<text xml:space="preserve" transform="matrix(1 0 -0 1 0 792)" font-size="11.04" font-family="Calibri"><tspan y="-277.78" x="516.67 520.258 526.0209 528.6484 533.6826 536.0783 541.5983 547.11837 552.63839">July 2023</tspan></text>
</g>
<clipPath id="cp174">
<path transform="matrix(1,0,0,-1,0,792)" d="M .00000912 0 L 612 0 L 612 792 L .00000912 792 Z " fill-rule="evenodd"/>
</clipPath>
<g clip-path="url(#cp174)">
<text xml:space="preserve" transform="matrix(1 0 -0 1 0 792)" font-size="11.04" font-family="Calibri"><tspan y="-277.78" x="558.22 560.84756 563.2432 565.6389">    </tspan></text>
</g>
<clipPath id="cp175">
<path transform="matrix(1,0,0,-1,0,792)" d="M .00000912 0 L 612 0 L 612 792 L .00000912 792 Z " fill-rule="evenodd"/>
</clipPath>
<g clip-path="url(#cp175)">
<text xml:space="preserve" transform="matrix(1 0 -0 1 0 792)" font-size="11.04" font-family="Calibri"><tspan y="-277.78" x="568.3"> </tspan></text>
</g>
<clipPath id="cp176">
<path transform="matrix(1,0,0,-1,0,792)" d="M .00000912 0 L 612 0 L 612 792 L .00000912 792 Z " fill-rule="evenodd"/>
</clipPath>
<g clip-path="url(#cp176)">
</g>
</g>
<g id="Layer-1" data-name="P">
<clipPath id="cp177">
<path transform="matrix(1,0,0,-1,0,792)" d="M .00000912 0 L 612 0 L 612 792 L .00000912 792 Z " fill-rule="evenodd"/>
</clipPath>
<g clip-path="url(#cp177)">
<text xml:space="preserve" transform="matrix(1 0 -0 1 0 792)" font-size="12" font-family="Calibri"><tspan y="-263.14" x="54.024 57.131998 63.371995 68.159999 72.22799 74.86799 78.93598 85.17599 89.24398 95.48398 98.12398 103.63198 109.88399 116.12399 122.09999 126.203998 129.07199 135.312 139.392 142.26001 148.02 153.996 159.072 165.52802 168.16802 173.20803 179.44803 182.08803 185.72403 188.79604 194.30403 200.30403">Instituto Superior T&#x00e9;cnico (IST)</tspan></text>
</g>
<clipPath id="cp178">
<path transform="matrix(1,0,0,-1,0,792)" d="M .00000912 0 L 612 0 L 612 792 L .00000912 792 Z " fill-rule="evenodd"/>
</clipPath>
<g clip-path="url(#cp178)">
<text xml:space="preserve" transform="matrix(1 0 -0 1 0 792)" font-size="11.04" font-family="Calibri"><tspan y="-263.14" x="204.31"> </tspan></text>
</g>
<clipPath id="cp179">
<path transform="matrix(1,0,0,-1,0,792)" d="M .00000912 0 L 612 0 L 612 792 L .00000912 792 Z " fill-rule="evenodd"/>
</clipPath>
<g clip-path="url(#cp179)">
<text xml:space="preserve" transform="matrix(1 0 -0 1 0 792)" font-size="11.04" font-family="Calibri"><tspan y="-263.14" x="486.43 490.98954 493.61708 497.93373 503.7297 509.45948 515.22238 517.8609 520.2566 526.0085 531.77139 535.6243 539.21237 544.9752 550.2413 555.5294">Lisbon, Portugal</tspan></text>
</g>
<clipPath id="cp180">
<path transform="matrix(1,0,0,-1,0,792)" d="M .00000912 0 L 612 0 L 612 792 L .00000912 792 Z " fill-rule="evenodd"/>
</clipPath>
<g clip-path="url(#cp180)">
<text xml:space="preserve" transform="matrix(1 0 -0 1 0 792)" font-size="11.04" font-family="Calibri"><tspan y="-263.14" x="558.22"> </tspan></text>
</g>
<clipPath id="cp181">
<path transform="matrix(1,0,0,-1,0,792)" d="M .00000912 0 L 612 0 L 612 792 L .00000912 792 Z " fill-rule="evenodd"/>
</clipPath>
<g clip-path="url(#cp181)">
</g>
</g>
<g id="Layer-1" data-name="P">
<clipPath id="cp182">
<path transform="matrix(1,0,0,-1,0,792)" d="M .00000912 0 L 612 0 L 612 792 L .00000912 792 Z " fill-rule="evenodd"/>
</clipPath>
<g clip-path="url(#cp182)">
<text xml:space="preserve" transform="matrix(1 0 -0 1 0 792)" font-size="11.04" font-family="Calibri"><tspan y="-242.23" x="54.024">&#x25aa;</tspan></text>
</g>
<clipPath id="cp183">
<path transform="matrix(1,0,0,-1,0,792)" d="M .00000912 0 L 612 0 L 612 792 L .00000912 792 Z " fill-rule="evenodd"/>
</clipPath>
<g clip-path="url(#cp183)">
<text xml:space="preserve" transform="matrix(1 0 -0 1 0 792)" font-size="11.04" font-family="Arial"><tspan y="-242.23" x="57.864"> </tspan></text>
</g>
<clipPath id="cp184">
<path transform="matrix(1,0,0,-1,0,792)" d="M .00000912 0 L 612 0 L 612 792 L .00000912 792 Z " fill-rule="evenodd"/>
</clipPath>
<g clip-path="url(#cp184)">
<text xml:space="preserve" transform="matrix(1 0 -0 1 0 792)" font-size="11.04" font-family="Calibri"><tspan y="-242.23" x="67.464 73.44768 79.210559 83.063518 86.91647 89.52191 94.081439 99.844318 102.47183 108.23471 117.09983 119.495517 127.17935 129.80687 133.4059 139.16878 141.56446 150.42957 155.71773 158.3563 164.10814 167.9611 170.34575 173.71295 179.4648 184.02433 189.7872 194.10384">Curriculum with major focus </tspan></text>
</g>
<clipPath id="cp185">
<path transform="matrix(1,0,0,-1,0,792)" d="M .00000912 0 L 612 0 L 612 792 L .00000912 792 Z " fill-rule="evenodd"/>
</clipPath>
<g clip-path="url(#cp185)">
<text xml:space="preserve" transform="matrix(1 0 -0 1 0 792)" font-size="11.04" font-family="Calibri"><tspan y="-242.23" x="196.63 202.39289 208.37657 210.77225 216.75594 222.0441 224.66059 229.22011 234.98299 237.6105 243.37339 247.69002 250.32857 252.72425 259.19367 261.8212 267.08729 272.85017 276.70314 279.3196 282.91865 288.68153 297.32585 301.6425 304.0492 311.49015 313.8858 320.60917 325.8973 329.4853 334.77345 337.1691 342.43519 346.0342 349.88719 355.639 360.19853 363.79756 369.56044 373.4134 378.91133 383.47087 386.10945 388.5051 395.22846 400.5166 404.10459 409.39274 415.14457 420.4327 424.74937 430.24729 434.56394 437.45643 439.85209 447.28199 454.48005 460.23188 462.87046 465.2661 472.45317 477.95109 481.5722 489.46583 495.2839 499.0927 504.1159 508.43257 510.8503 516.1385 521.8903 527.6532">on Calculus, Algorithms &#x0026; Data Structures, Databases, OOP, Networks and </tspan></text>
</g>
<clipPath id="cp186">
<path transform="matrix(1,0,0,-1,0,792)" d="M .00000912 0 L 612 0 L 612 792 L .00000912 792 Z " fill-rule="evenodd"/>
</clipPath>
<g clip-path="url(#cp186)">
</g>
<clipPath id="cp187">
<path transform="matrix(1,0,0,-1,0,792)" d="M .00000912 0 L 612 0 L 612 792 L .00000912 792 Z " fill-rule="evenodd"/>
</clipPath>
<g clip-path="url(#cp187)">
<text xml:space="preserve" transform="matrix(1 0 -0 1 0 792)" font-size="11.04" font-family="Calibri"><tspan y="-226.63" x="67.464 74.187358 76.81487 81.131519 84.73056 88.58352 91.2 96.962879 102.72575 106.3248 111.822719 117.61871 120.00336 125.07072 130.07184 134.38848 137.99855 143.49648 152.38367 156.7003">Distributed Systems.</tspan></text>
</g>
<clipPath id="cp188">
<path transform="matrix(1,0,0,-1,0,792)" d="M .00000912 0 L 612 0 L 612 792 L .00000912 792 Z " fill-rule="evenodd"/>
</clipPath>
<g clip-path="url(#cp188)">
<text xml:space="preserve" transform="matrix(1 0 -0 1 0 792)" font-size="11.04" font-family="Calibri"><tspan y="-226.63" x="159.41"> </tspan></text>
</g>
<clipPath id="cp189">
<path transform="matrix(1,0,0,-1,0,792)" d="M .00000912 0 L 612 0 L 612 792 L .00000912 792 Z " fill-rule="evenodd"/>
</clipPath>
<g clip-path="url(#cp189)">
</g>
</g>
<g id="Layer-1" data-name="P">
<clipPath id="cp190">
<path transform="matrix(1,0,0,-1,0,792)" d="M .00000912 0 L 612 0 L 612 792 L .00000912 792 Z " fill-rule="evenodd"/>
</clipPath>
<g clip-path="url(#cp190)">
<text xml:space="preserve" transform="matrix(1 0 -0 1 0 792)" font-size="11.04" font-family="Calibri"><tspan y="-211.27" x="54.024">&#x25aa;</tspan></text>
</g>
<clipPath id="cp191">
<path transform="matrix(1,0,0,-1,0,792)" d="M .00000912 0 L 612 0 L 612 792 L .00000912 792 Z " fill-rule="evenodd"/>
</clipPath>
<g clip-path="url(#cp191)">
<text xml:space="preserve" transform="matrix(1 0 -0 1 0 792)" font-size="11.04" font-family="Arial"><tspan y="-211.27" x="57.864"> </tspan></text>
</g>
<clipPath id="cp192">
<path transform="matrix(1,0,0,-1,0,792)" d="M .00000912 0 L 612 0 L 612 792 L .00000912 792 Z " fill-rule="evenodd"/>
</clipPath>
<g clip-path="url(#cp192)">
<text xml:space="preserve" transform="matrix(1 0 -0 1 0 792)" font-size="11.04" font-family="Calibri"><tspan y="-211.27" x="67.464 73.44768 79.210559 88.075679 93.838558 96.46607 101.96399 105.58511 111.08303 116.87903 119.26367 128.12879 133.64879 136.2763 139.87534 142.50286 148.26573 150.89325 156.39118 158.80893 164.57181 168.42478 174.17662 176.81519 182.31311 186.89472 190.49375 194.81038 197.2171 202.97998 207.29662 209.92414 215.68701 220.9531 223.34877 226.9478 232.44573 237.02733 242.7902 248.55309 254.31597 256.94349 262.70637 267.97245 270.59999 276.0979 280.41456 282.84333 287.15998 292.95597 297.48237 303.24525 305.6409 310.92906 315.2457 318.1161 320.51176 326.26359 331.29783 334.89686 340.65974 346.4226 352.1855 354.82408 357.21974 363.2034 366.07383 368.46949 372.0575 377.34565 382.36885 387.65699 390.28453 392.68019 398.66386 404.16178 409.6928 412.3314 414.72706 419.7944 427.22434 431.76179 434.40037 436.79603 442.54786 449.49205 455.24388 457.88246 460.2781 464.83766 467.70805 472.7754 478.48307 481.37556 483.7712 489.52305 493.376 499.12785 501.75538 507.51826 512.7843 515.18 520.46817 526.22 531.98287">Completed multiple projects using technologies such as: Python, C, Java, C++, SQL, PHP, LISP, Prolog and </tspan></text>
</g>
<clipPath id="cp193">
<path transform="matrix(1,0,0,-1,0,792)" d="M .00000912 0 L 612 0 L 612 792 L .00000912 792 Z " fill-rule="evenodd"/>
</clipPath>
<g clip-path="url(#cp193)">
</g>
<clipPath id="cp194">
<path transform="matrix(1,0,0,-1,0,792)" d="M .00000912 0 L 612 0 L 612 792 L .00000912 792 Z " fill-rule="evenodd"/>
</clipPath>
<g clip-path="url(#cp194)">
<text xml:space="preserve" transform="matrix(1 0 -0 1 0 792)" font-size="11.04" font-family="Calibri"><tspan y="-195.91" x="67.464 73.93343 78.25008 82.56672 88.06464 96.962879 102.48287 105.11039 110.14463 113.01503">Assembly. </tspan></text>
</g>
<clipPath id="cp195">
<path transform="matrix(1,0,0,-1,0,792)" d="M .00000912 0 L 612 0 L 612 792 L .00000912 792 Z " fill-rule="evenodd"/>
</clipPath>
<g clip-path="url(#cp195)">
<text xml:space="preserve" transform="matrix(1 0 -0 1 0 792)" font-size="11.04" font-family="Calibri"><tspan y="-195.91" x="115.25"> </tspan></text>
</g>
<clipPath id="cp196">
<path transform="matrix(1,0,0,-1,0,792)" d="M .00000912 0 L 612 0 L 612 792 L .00000912 792 Z " fill-rule="evenodd"/>
</clipPath>
<g clip-path="url(#cp196)">
</g>
</g>
<g id="Layer-1" data-name="P">
<clipPath id="cp197">
<path transform="matrix(1,0,0,-1,0,792)" d="M .00000912 0 L 612 0 L 612 792 L .00000912 792 Z " fill-rule="evenodd"/>
</clipPath>
<g clip-path="url(#cp197)">
<text xml:space="preserve" transform="matrix(1 0 -0 1 0 792)" font-size="11.04" font-family="Calibri,Bold" font-weight="bold"><tspan y="-180.31" x="54.024"> </tspan></text>
</g>
<clipPath id="cp198">
<path transform="matrix(1,0,0,-1,0,792)" d="M .00000912 0 L 612 0 L 612 792 L .00000912 792 Z " fill-rule="evenodd"/>
</clipPath>
<g clip-path="url(#cp198)">
</g>
</g>
<g id="Layer-1" data-name="P">
<clipPath id="cp199">
<path transform="matrix(1,0,0,-1,0,792)" d="M .00000912 0 L 612 0 L 612 792 L .00000912 792 Z " fill-rule="evenodd"/>
</clipPath>
<g clip-path="url(#cp199)">
<text xml:space="preserve" transform="matrix(1 0 -0 1 0 792)" font-size="11.04" font-family="Calibri,Bold" font-weight="bold"><tspan y="-166.87" x="54.024"> </tspan></text>
</g>
<clipPath id="cp200">
<path transform="matrix(1,0,0,-1,0,792)" d="M .00000912 0 L 612 0 L 612 792 L .00000912 792 Z " fill-rule="evenodd"/>
</clipPath>
<g clip-path="url(#cp200)">
</g>
</g>
<g id="Layer-1" data-name="P">
<clipPath id="cp201">
<path transform="matrix(1,0,0,-1,0,792)" d="M .00000912 0 L 612 0 L 612 792 L .00000912 792 Z " fill-rule="evenodd"/>
</clipPath>
<g clip-path="url(#cp201)">
<text xml:space="preserve" transform="matrix(1 0 -0 1 0 792)" font-size="13.92" font-family="Calibri,Bold" font-weight="bold"><tspan y="-150.77" x="54.024 61.44336 68.16672 76.07328 83.01936 86.62464 93.09744 96.70272 104.12208 112.5576 119.71249 123.317768 132.67201 142.01233 148.49906 151.64498 161.45858 164.79938 168.40467 177.52227 184.70497 191.42833 199.33489 206.28096 212.76769 219.71376">CERTIFICATIONS &#x0026; INTERESTS</tspan></text>
</g>
<clipPath id="cp202">
<path transform="matrix(1,0,0,-1,0,792)" d="M .00000912 0 L 612 0 L 612 792 L .00000912 792 Z " fill-rule="evenodd"/>
</clipPath>
<g clip-path="url(#cp202)">
<text xml:space="preserve" transform="matrix(1 0 -0 1 0 792)" font-size="12.96" font-family="Calibri"><tspan y="-150.77" x="226.66"> </tspan></text>
</g>
<clipPath id="cp203">
<path transform="matrix(1,0,0,-1,0,792)" d="M .00000912 0 L 612 0 L 612 792 L .00000912 792 Z " fill-rule="evenodd"/>
</clipPath>
<g clip-path="url(#cp203)">
<text xml:space="preserve" transform="matrix(1 0 -0 1 0 792)" font-size="12.96" font-family="Calibri"><tspan y="-150.77" x="306.12"> </tspan></text>
</g>
<clipPath id="cp204">
<path transform="matrix(1,0,0,-1,0,792)" d="M .00000912 0 L 612 0 L 612 792 L .00000912 792 Z " fill-rule="evenodd"/>
</clipPath>
<g clip-path="url(#cp204)">
<text xml:space="preserve" transform="matrix(1 0 -0 1 0 792)" font-size="12.96" font-family="Calibri"><tspan y="-150.77" x="342.12"> </tspan></text>
</g>
<clipPath id="cp205">
<path transform="matrix(1,0,0,-1,0,792)" d="M .00000912 0 L 612 0 L 612 792 L .00000912 792 Z " fill-rule="evenodd"/>
</clipPath>
<g clip-path="url(#cp205)">
<text xml:space="preserve" transform="matrix(1 0 -0 1 0 792)" font-size="12.96" font-family="Calibri"><tspan y="-150.77" x="378.14"> </tspan></text>
</g>
<clipPath id="cp206">
<path transform="matrix(1,0,0,-1,0,792)" d="M .00000912 0 L 612 0 L 612 792 L .00000912 792 Z " fill-rule="evenodd"/>
</clipPath>
<g clip-path="url(#cp206)">
<text xml:space="preserve" transform="matrix(1 0 -0 1 0 792)" font-size="12.96" font-family="Calibri"><tspan y="-150.77" x="414.14"> </tspan></text>
</g>
<clipPath id="cp207">
<path transform="matrix(1,0,0,-1,0,792)" d="M .00000912 0 L 612 0 L 612 792 L .00000912 792 Z " fill-rule="evenodd"/>
</clipPath>
<g clip-path="url(#cp207)">
<text xml:space="preserve" transform="matrix(1 0 -0 1 0 792)" font-size="12.96" font-family="Calibri"><tspan y="-150.77" x="450.17"> </tspan></text>
</g>
<clipPath id="cp208">
<path transform="matrix(1,0,0,-1,0,792)" d="M .00000912 0 L 612 0 L 612 792 L .00000912 792 Z " fill-rule="evenodd"/>
</clipPath>
<g clip-path="url(#cp208)">
<text xml:space="preserve" transform="matrix(1 0 -0 1 0 792)" font-size="12.96" font-family="Calibri"><tspan y="-150.77" x="486.19 489.0671 491.9442 494.82133 497.69844 500.57554 503.6859 506.56303 509.44013 512.31729 515.4277 518.3048 521.18197 524.0591 527.1695 530.04666 532.92379 535.8009 538.9113 541.78848 544.6656 547.5427 550.65316 553.5303 556.4074 559.28457">                          </tspan></text>
</g>
<clipPath id="cp209">
<path transform="matrix(1,0,0,-1,0,792)" d="M .00000912 0 L 612 0 L 612 792 L .00000912 792 Z " fill-rule="evenodd"/>
</clipPath>
<g clip-path="url(#cp209)">
<text xml:space="preserve" transform="matrix(1 0 -0 1 0 792)" font-size="12.96" font-family="Calibri"><tspan y="-150.77" x="562.54"> </tspan></text>
</g>
<clipPath id="cp210">
<path transform="matrix(1,0,0,-1,0,792)" d="M .00000912 0 L 612 0 L 612 792 L .00000912 792 Z " fill-rule="evenodd"/>
</clipPath>
<g clip-path="url(#cp210)">
<path transform="matrix(1,0,0,-1,0,792)" d="M 52.584 141.17 L 559.654 141.17 L 559.654 143.33 L 52.584 143.33 Z " fill="#6c6c6c" fill-rule="evenodd"/>
</g>
</g>
<g id="Layer-1" data-name="P">
<clipPath id="cp211">
<path transform="matrix(1,0,0,-1,0,792)" d="M .00000912 0 L 612 0 L 612 792 L .00000912 792 Z " fill-rule="evenodd"/>
</clipPath>
<g clip-path="url(#cp211)">
<text xml:space="preserve" transform="matrix(1 0 -0 1 0 792)" font-size="7.92" font-family="Calibri"><tspan y="-133.49" x="67.464"> </tspan></text>
</g>
</g>
<g id="Layer-1" data-name="P">
<clipPath id="cp212">
<path transform="matrix(1,0,0,-1,0,792)" d="M .00000912 0 L 612 0 L 612 792 L .00000912 792 Z " fill-rule="evenodd"/>
</clipPath>
<g clip-path="url(#cp212)">
<text xml:space="preserve" transform="matrix(1 0 -0 1 0 792)" font-size="11.04" font-family="Times New Roman"><tspan y="-120.77" x="54.024">&#x25aa;</tspan></text>
</g>
<clipPath id="cp213">
<path transform="matrix(1,0,0,-1,0,792)" d="M .00000912 0 L 612 0 L 612 792 L .00000912 792 Z " fill-rule="evenodd"/>
</clipPath>
<g clip-path="url(#cp213)">
<text xml:space="preserve" transform="matrix(1 0 -0 1 0 792)" font-size="11.04" font-family="Arial"><tspan y="-120.77" x="57.864"> </tspan></text>
</g>
<clipPath id="cp214">
<path transform="matrix(1,0,0,-1,0,792)" d="M .00000912 0 L 612 0 L 612 792 L .00000912 792 Z " fill-rule="evenodd"/>
</clipPath>
<g clip-path="url(#cp214)">
<text xml:space="preserve" transform="matrix(1 0 -0 1 0 792)" font-size="11.04" font-family="Calibri,Bold" font-weight="bold"><tspan y="-120.77" x="67.464 73.226879 78.74688 81.14256 87.12624 90.96816 96.95184 100.53984 103.178409 107.73793 110.376499 115.8965 121.88018 126.439708 131.7058 134.10147 136.74002 142.72371 145.11939 150.39652 156.3802 161.64629 164.28484 166.92339 171.24002">C2 Proficiency in English</tspan></text>
</g>
<clipPath id="cp215">
<path transform="matrix(1,0,0,-1,0,792)" d="M .00000912 0 L 612 0 L 612 792 L .00000912 792 Z " fill-rule="evenodd"/>
</clipPath>
<g clip-path="url(#cp215)">
<text xml:space="preserve" transform="matrix(1 0 -0 1 0 792)" font-size="11.04" font-family="Calibri"><tspan y="-120.77" x="177.43"> </tspan></text>
</g>
<clipPath id="cp216">
<path transform="matrix(1,0,0,-1,0,792)" d="M .00000912 0 L 612 0 L 612 792 L .00000912 792 Z " fill-rule="evenodd"/>
</clipPath>
<g clip-path="url(#cp216)">
<text xml:space="preserve" transform="matrix(1 0 -0 1 0 792)" font-size="11.04" font-family="Calibri"><tspan y="-120.77" x="179.83 183.17513 189.1809 194.46906 203.33417 209.09705 212.95001 215.5665 221.32938 226.59546 232.09339 234.51114 241.69818 247.21819 249.8457 254.87995 260.37788 264.23085 268.31565 270.94319 274.5422 279.57646 282.92158 285.57118 287.96684 293.9726 296.36827 301.63435 305.4873 310.77546 316.51625 322.01417 324.43193 327.77705 333.30809 338.8281 344.3481 348.65373 354.17375 359.69377 365.21379 368.5589">(Cambridge University), B grade (215/230) </tspan></text>
</g>
<clipPath id="cp217">
<path transform="matrix(1,0,0,-1,0,792)" d="M .00000912 0 L 612 0 L 612 792 L .00000912 792 Z " fill-rule="evenodd"/>
</clipPath>
<g clip-path="url(#cp217)">
<text xml:space="preserve" transform="matrix(1 0 -0 1 0 792)" font-size="11.04" font-family="Calibri"><tspan y="-120.77" x="371.18">-</tspan></text>
</g>
<clipPath id="cp218">
<path transform="matrix(1,0,0,-1,0,792)" d="M .00000912 0 L 612 0 L 612 792 L .00000912 792 Z " fill-rule="evenodd"/>
</clipPath>
<g clip-path="url(#cp218)">
<text xml:space="preserve" transform="matrix(1 0 -0 1 0 792)" font-size="11.04" font-family="Calibri"><tspan y="-120.77" x="374.78"> </tspan></text>
</g>
<clipPath id="cp219">
<path transform="matrix(1,0,0,-1,0,792)" d="M .00000912 0 L 612 0 L 612 792 L .00000912 792 Z " fill-rule="evenodd"/>
</clipPath>
<g clip-path="url(#cp219)">
<text xml:space="preserve" transform="matrix(1 0 -0 1 0 792)" font-size="11.04" font-family="Calibri"><tspan y="-120.77" x="377.18 381.7395 385.59248 391.0904 396.88639 402.3843 408.13615 411.73518 414.3627 419.65086 422.26734 424.663 427.5334 434.25675 437.13819 439.53385 445.5396 451.04859 456.80046 462.32048 467.84049 473.3605 479.11238 484.6324">credential ID: B1965016.</tspan></text>
</g>
<clipPath id="cp220">
<path transform="matrix(1,0,0,-1,0,792)" d="M .00000912 0 L 612 0 L 612 792 L .00000912 792 Z " fill-rule="evenodd"/>
</clipPath>
<g clip-path="url(#cp220)">
<text xml:space="preserve" transform="matrix(1 0 -0 1 0 792)" font-size="11.04" font-family="Calibri"><tspan y="-120.77" x="487.63"> </tspan></text>
</g>
</g>
<g id="Layer-1" data-name="P">
<clipPath id="cp221">
<path transform="matrix(1,0,0,-1,0,792)" d="M .00000912 0 L 612 0 L 612 792 L .00000912 792 Z " fill-rule="evenodd"/>
</clipPath>
<g clip-path="url(#cp221)">
<text xml:space="preserve" transform="matrix(1 0 -0 1 0 792)" font-size="11.04" font-family="Times New Roman"><tspan y="-105.41" x="54.024">&#x25aa;</tspan></text>
</g>
<clipPath id="cp222">
<path transform="matrix(1,0,0,-1,0,792)" d="M .00000912 0 L 612 0 L 612 792 L .00000912 792 Z " fill-rule="evenodd"/>
</clipPath>
<g clip-path="url(#cp222)">
<text xml:space="preserve" transform="matrix(1 0 -0 1 0 792)" font-size="11.04" font-family="Arial"><tspan y="-105.41" x="57.864"> </tspan></text>
</g>
<clipPath id="cp223">
<path transform="matrix(1,0,0,-1,0,792)" d="M .00000912 0 L 612 0 L 612 792 L .00000912 792 Z " fill-rule="evenodd"/>
</clipPath>
<g clip-path="url(#cp223)">
<text xml:space="preserve" transform="matrix(1 0 -0 1 0 792)" font-size="11.04" font-family="Calibri"><tspan y="-105.41" x="67.464 73.44768 79.210559 88.075679 93.838558 99.33647 102.957599 105.58511 109.18416 111.811679 116.614078 122.11199 124.529758 130.2816 134.13457 139.88642 145.1525 149.00547 154.29363 162.91587 171.78098 174.4085 179.9285 185.19458 187.59026 190.93538 194.78835 200.28627 205.57444 211.33731 213.96483 219.01012 222.86309 225.24773 229.80725 235.57013 244.43524 250.19812 255.69605 259.31718 261.9447 265.54374 271.3066 275.15959 277.5442 280.17173 285.9346 288.33027 296.22389 301.7549 307.25285 312.30915 314.93669 319.97093 322.36659 324.9941 330.757 334.35603 339.85395 343.7069 349.5029 354.75794 358.35697 360.9845 366.74739 372.51026 377.7984 380.4149 382.81056 388.57344 394.3363 396.96385 399.59138 405.11137 410.60929 413.02705 417.58656 423.34944 429.1123 431.73985 437.50273 442.7688 445.16447 449.72398 455.48686 464.35197 470.11485 475.61277 479.2339 481.86143 485.46046 488.08799 493.85087 499.61375 503.9304 506.3371 511.62525 516.8913 522.17947 524.7959 530.5588 534.8754 538.4745">Competitive Programming (regular competitor in weekly international online coding competitions against </tspan></text>
</g>
<clipPath id="cp224">
<path transform="matrix(1,0,0,-1,0,792)" d="M .00000912 0 L 612 0 L 612 792 L .00000912 792 Z " fill-rule="evenodd"/>
</clipPath>
<g clip-path="url(#cp224)">
<text xml:space="preserve" transform="matrix(1 0 -0 1 0 792)" font-size="11.04" font-family="Calibri"><tspan y="-90.048" x="67.464 71.06304 76.82592 82.5888 88.35168 92.66832 97.95648 103.70832 109.4712 113.78784 116.194568 121.95744 125.324649 127.941127 133.704 137.30303 143.0659 148.56383 152.4168 155.05536 159.61489 165.37776 174.24288 180.00576 185.50368 189.12479 191.7523 195.35134 201.11421 204.96718">thousands of other competitors</tspan></text>
</g>
<clipPath id="cp225">
<path transform="matrix(1,0,0,-1,0,792)" d="M .00000912 0 L 612 0 L 612 792 L .00000912 792 Z " fill-rule="evenodd"/>
</clipPath>
<g clip-path="url(#cp225)">
<text xml:space="preserve" transform="matrix(1 0 -0 1 0 792)" font-size="11.04" font-family="Calibri"><tspan y="-90.048" x="209.35"> </tspan></text>
</g>
<clipPath id="cp226">
<path transform="matrix(1,0,0,-1,0,792)" d="M .00000912 0 L 612 0 L 612 792 L .00000912 792 Z " fill-rule="evenodd"/>
</clipPath>
<g clip-path="url(#cp226)">
<text xml:space="preserve" transform="matrix(1 0 -0 1 0 792)" font-size="11.04" font-family="Calibri"><tspan y="-90.048" x="211.75 217.03816 222.79001 228.55289 230.94857 235.49704 239.09607 244.85895 250.62183 256.11976 261.91575 265.50373 269.82038 273.1655">and students).</tspan></text>
</g>
<clipPath id="cp227">
<path transform="matrix(1,0,0,-1,0,792)" d="M .00000912 0 L 612 0 L 612 792 L .00000912 792 Z " fill-rule="evenodd"/>
</clipPath>
<g clip-path="url(#cp227)">
<text xml:space="preserve" transform="matrix(1 0 -0 1 0 792)" font-size="11.04" font-family="Calibri"><tspan y="-90.048" x="276.1"> </tspan></text>
</g>
</g>
<g id="Layer-1" data-name="P">
<clipPath id="cp228">
<path transform="matrix(1,0,0,-1,0,792)" d="M .00000912 0 L 612 0 L 612 792 L .00000912 792 Z " fill-rule="evenodd"/>
</clipPath>
<g clip-path="url(#cp228)">
<text xml:space="preserve" transform="matrix(1 0 -0 1 0 792)" font-size="11.04" font-family="Times New Roman"><tspan y="-74.424" x="54.024">&#x25aa;</tspan></text>
</g>
<clipPath id="cp229">
<path transform="matrix(1,0,0,-1,0,792)" d="M .00000912 0 L 612 0 L 612 792 L .00000912 792 Z " fill-rule="evenodd"/>
</clipPath>
<g clip-path="url(#cp229)">
<text xml:space="preserve" transform="matrix(1 0 -0 1 0 792)" font-size="11.04" font-family="Arial"><tspan y="-74.424" x="57.864"> </tspan></text>
</g>
<clipPath id="cp230">
<path transform="matrix(1,0,0,-1,0,792)" d="M .00000912 0 L 612 0 L 612 792 L .00000912 792 Z " fill-rule="evenodd"/>
</clipPath>
<g clip-path="url(#cp230)">
<text xml:space="preserve" transform="matrix(1 0 -0 1 0 792)" font-size="11.04" font-family="Calibri"><tspan y="-74.424" x="67.464 72.984 75.379688 81.14256 86.90544 89.301128 95.05296 97.44865 101.04769 107.03137 110.63042 116.393299 120.246257 122.86273 128.62561 133.8917 136.28737 142.05025 147.81313 150.2088 156.67826 159.30577 164.57186 170.33473 174.1877 176.80419 180.40322 186.16609 195.0312 199.34784 201.98639 204.38207 211.10543 216.39359 219.98159 225.26975 227.66542 232.73279 236.30974 240.1627 245.91455 250.70592 254.30495 260.06785 263.9208 269.41874 273.73539 276.15315 281.44129 287.1931 292.956 295.35166 305.17726 310.94013 316.703 319.09867 325.82203 331.31996 336.37629 341.8742 344.52384 350.2867 356.0496 364.9147 370.41264 376.20863 379.7966">1 on 1 tutoring on Algorithms, Data Structures and Web Development.</tspan></text>
</g>
<clipPath id="cp231">
<path transform="matrix(1,0,0,-1,0,792)" d="M .00000912 0 L 612 0 L 612 792 L .00000912 792 Z " fill-rule="evenodd"/>
</clipPath>
<g clip-path="url(#cp231)">
<text xml:space="preserve" transform="matrix(1 0 -0 1 0 792)" font-size="11.04" font-family="Calibri"><tspan y="-74.424" x="382.7"> </tspan></text>
</g>
</g>
<g id="Layer-1" data-name="P">
<clipPath id="cp232">
<path transform="matrix(1,0,0,-1,0,792)" d="M .00000912 0 L 612 0 L 612 792 L .00000912 792 Z " fill-rule="evenodd"/>
</clipPath>
<g clip-path="url(#cp232)">
<text xml:space="preserve" transform="matrix(1 0 -0 1 0 792)" font-size="10.56" font-family="Calibri"><tspan y="-59.784" x="54.024"> </tspan></text>
</g>
<clipPath id="cp233">
<path transform="matrix(1,0,0,-1,0,792)" d="M .00000912 0 L 612 0 L 612 792 L .00000912 792 Z " fill-rule="evenodd"/>
</clipPath>
<g clip-path="url(#cp233)">
</g>
</g>
</g>
</g>
</svg>
